<svg xmlns="http://www.w3.org/2000/svg"  viewBox="0 0 520 520" width="512px" height="512px"><path fill="#f88f19" d="M460,47c16.56,0,30,13.43,30,30s-13.44,30-30,30c-16.57,0-30-13.43-30-30S443.43,47,460,47z"/><path fill="#f88f19" d="M70,62c8.28,0,15,6.72,15,15s-6.72,15-15,15c-8.29,0-15-6.72-15-15S61.71,62,70,62z"/><path fill="#f88f19" d="M60,402.001c8.28,0,15,6.72,15,15s-6.72,15-15,15c-8.29,0-15-6.72-15-15S51.71,402.001,60,402.001 z"/><circle cx="261" cy="264.001" r="140" fill="#d7deed"/><path fill="#149c4f" d="M261.02,214.9c27.02,0,49.07,22.05,49.07,49.12c0,27.03-22.051,49.08-49.07,49.08 c-27.07,0-49.12-22.05-49.12-49.08C211.9,236.951,233.95,214.9,261.02,214.9z M281.529,264.021c0-11.31-9.24-20.55-20.51-20.55 c-11.32,0-20.55,9.24-20.55,20.55c0,11.271,9.23,20.511,20.55,20.511C272.289,284.531,281.529,275.291,281.529,264.021z"/><path fill="#07cc66" d="M367.99,253.75v20.5l-30.601,6.84c-1.989,8.96-5.521,17.29-10.28,24.811l16.801,26.529 l-14.49,14.48l-26.53-16.79c-7.47,4.75-15.84,8.28-24.8,10.27l-6.84,30.61h-20.51l-6.83-30.61c-8.97-1.989-17.3-5.52-24.81-10.27 l-26.53,16.79l-14.49-14.48l16.8-26.529c-4.76-7.471-8.29-15.851-10.28-24.811l-30.6-6.84v-20.5l30.6-6.84 c1.99-8.96,5.52-17.29,10.28-24.81l-16.8-26.53l14.49-14.48l26.53,16.84c7.51-4.8,15.84-8.29,24.81-10.32l6.83-30.61h20.51 l6.84,30.61c8.96,2.03,17.29,5.52,24.8,10.32l26.53-16.84l14.49,14.48l-16.801,26.53c4.76,7.52,8.291,15.85,10.28,24.81 L367.99,253.75z M310.09,264.021c0-27.07-22.051-49.12-49.07-49.12c-27.07,0-49.12,22.05-49.12,49.12 c0,27.03,22.05,49.08,49.12,49.08C288.039,313.101,310.09,291.051,310.09,264.021z"/><path fill="#95a5a5" d="M477.5,152c4.14,0,7.5,3.36,7.5,7.5s-3.36,7.5-7.5,7.5c-4.15,0-7.5-3.36-7.5-7.5 S473.35,152,477.5,152z"/><path fill="#95a5a5" d="M462.5,367.001c4.14,0,7.5,3.36,7.5,7.5s-3.36,7.5-7.5,7.5c-4.15,0-7.5-3.36-7.5-7.5 S458.35,367.001,462.5,367.001z"/><path fill="#95a5a5" d="M372.5,47c4.14,0,7.5,3.36,7.5,7.5s-3.36,7.5-7.5,7.5c-4.15,0-7.5-3.36-7.5-7.5 S368.35,47,372.5,47z"/><path fill="#95a5a5" d="M142.5,47c4.14,0,7.5,3.36,7.5,7.5s-3.36,7.5-7.5,7.5c-4.15,0-7.5-3.36-7.5-7.5 S138.35,47,142.5,47z"/><path fill="#95a5a5" d="M47.5,142c4.14,0,7.5,3.36,7.5,7.5s-3.36,7.5-7.5,7.5c-4.15,0-7.5-3.36-7.5-7.5 S43.35,142,47.5,142z"/><path fill="#95a5a5" d="M42.5,352.001c4.14,0,7.5,3.36,7.5,7.5s-3.36,7.5-7.5,7.5c-4.15,0-7.5-3.36-7.5-7.5 S38.35,352.001,42.5,352.001z"/><path fill="#5cbeff" d="M154.985,438.632c-0.906,0-1.824-0.247-2.649-0.764c-28.911-18.104-53.069-43.356-69.861-73.025 C65.155,334.241,56,299.371,56,264.001c0-41.9,12.554-82.19,36.304-116.516c23.202-33.532,55.428-59.167,93.193-74.133 c2.568-1.017,5.474,0.239,6.491,2.806c1.017,2.567-0.239,5.473-2.806,6.491C114.352,112.304,66,183.489,66,264.001 c0,67.629,34.259,129.458,91.644,165.393c2.34,1.465,3.049,4.551,1.584,6.891C158.278,437.8,156.65,438.632,154.985,438.632z"/><path fill="#3256c1" d="M269.282,59.166l10.12-18.794c1.309-2.432,0.399-5.464-2.031-6.773 c-2.434-1.31-5.465-0.399-6.773,2.032l-14,26c-0.021,0.04-0.036,0.083-0.056,0.123c-0.033,0.066-0.062,0.134-0.092,0.202 c-0.098,0.218-0.18,0.439-0.245,0.666c-0.015,0.051-0.034,0.101-0.047,0.152c-0.069,0.272-0.112,0.547-0.135,0.825 c-0.005,0.069-0.005,0.138-0.008,0.208c-0.009,0.236-0.002,0.471,0.021,0.707c0.006,0.06,0.007,0.119,0.016,0.179 c0.039,0.277,0.104,0.549,0.189,0.818c0.022,0.069,0.048,0.136,0.073,0.205c0.093,0.254,0.203,0.503,0.338,0.743 c0.012,0.021,0.017,0.043,0.029,0.064l14,24c0.929,1.593,2.603,2.481,4.323,2.481c0.854,0,1.722-0.22,2.515-0.682 c2.385-1.391,3.191-4.453,1.799-6.838l-9.491-16.271C373.27,73.842,456,159.436,456,264.001c0,107.523-87.477,195-195,195H35 c-2.761,0-5,2.238-5,5s2.239,5,5,5h226c113.037,0,205-91.963,205-205C466,153.737,378.496,63.526,269.282,59.166z"/><path fill="#95a5a5" d="M489.217,464.676c0.152-0.241,0.291-0.492,0.402-0.762c0.002-0.004,0.003-0.008,0.004-0.012 c0.02-0.046,0.029-0.095,0.047-0.142c0.088-0.231,0.157-0.466,0.209-0.703c0.02-0.091,0.031-0.182,0.047-0.273 c0.031-0.206,0.052-0.412,0.059-0.619c0.003-0.09,0.008-0.178,0.006-0.268c-0.006-0.26-0.029-0.519-0.074-0.774 c-0.006-0.03-0.006-0.06-0.012-0.09c-0.055-0.279-0.14-0.551-0.242-0.817c-0.033-0.087-0.074-0.171-0.112-0.256 c-0.085-0.191-0.183-0.376-0.292-0.557c-0.049-0.08-0.096-0.159-0.15-0.237c-0.17-0.246-0.355-0.483-0.572-0.7l-20-20 c-1.953-1.953-5.117-1.953-7.07,0c-1.953,1.952-1.953,5.118,0,7.07l11.464,11.465H385c-2.762,0-5,2.238-5,5s2.238,5,5,5h87.93 l-11.465,11.465c-1.953,1.952-1.953,5.118,0,7.07c0.977,0.977,2.256,1.465,3.535,1.465s2.559-0.488,3.535-1.465l20-20 c0.036-0.035,0.06-0.078,0.094-0.114c0.16-0.17,0.307-0.351,0.443-0.542C489.121,464.812,489.172,464.746,489.217,464.676z"/><path fill="#bdf9ff" d="M140.79,389.211c-1.28,0-2.559-0.488-3.536-1.465c-68.233-68.232-68.233-179.257,0-247.491 c1.953-1.952,5.118-1.952,7.071,0c1.953,1.953,1.953,5.119,0,7.071c-64.334,64.334-64.334,169.015,0,233.35 c1.953,1.952,1.953,5.118,0,7.07C143.349,388.723,142.069,389.211,140.79,389.211z"/><path fill="#bdf9ff" d="M381.199,389.211c-1.279,0-2.559-0.488-3.535-1.465c-1.953-1.952-1.953-5.118,0-7.07 c31.165-31.165,48.328-72.601,48.328-116.675s-17.163-85.51-48.328-116.675c-1.953-1.953-1.953-5.119,0-7.071 c1.953-1.952,5.118-1.952,7.071,0c33.054,33.054,51.257,77.001,51.257,123.746s-18.203,90.692-51.257,123.745 C383.759,388.723,382.479,389.211,381.199,389.211z"/></svg>