<svg xmlns="http://www.w3.org/2000/svg"  viewBox="0 0 66 66" width="512px" height="512px"><path fill="#8c9ffa" d="M56.91,61.08c0,2.17-1.76,3.92-3.91,3.92H13.01c-2.17,0-3.92-1.75-3.92-3.92V11.84c0-2.16,1.75-3.91,3.92-3.91 H53c2.16,0,3.91,1.76,3.91,3.91V61.08z"/><path fill="#fff" d="M13.08,59.31V13.62c0-0.94,0.76-1.7,1.7-1.7h36.43c0.94,0,1.7,0.76,1.7,1.7v45.68c0,0.94-0.76,1.7-1.7,1.7 H14.78C13.84,61.01,13.08,60.24,13.08,59.31z"/><path fill="#44394a" d="M20.76,13.27V6.87c0-0.77,0.63-1.4,1.4-1.4h6.64C28.89,2.99,30.93,1,33.43,1c2.51,0,4.54,1.99,4.62,4.47h6.65 c0.77,0,1.4,0.63,1.4,1.4v6.39c0,0.72-0.59,1.31-1.31,1.31H22.07C21.35,14.57,20.76,13.99,20.76,13.27z"/><path fill="#fff" d="M34.97,5.09c0,0.85-0.69,1.54-1.54,1.54c-0.85,0-1.54-0.69-1.54-1.54c0-0.85,0.69-1.54,1.54-1.54 C34.28,3.55,34.97,4.24,34.97,5.09z"/><path fill="#fc8068" d="M22.73,29.77v5.57c0,0.58-0.47,1.06-1.06,1.06h-3.39c-0.58,0-1.06-0.47-1.06-1.06v-5.57 c0-0.58,0.47-1.06,1.06-1.06h3.39C22.26,28.72,22.73,29.19,22.73,29.77z"/><path fill="#4ec4a5" d="M31.41,27.12v8.23c0,0.58-0.47,1.06-1.06,1.06h-3.39c-0.58,0-1.06-0.47-1.06-1.06v-8.23 c0-0.58,0.47-1.06,1.06-1.06h3.39C30.94,26.06,31.41,26.53,31.41,27.12z"/><path fill="#ffbfad" d="M40.09,24.3v11.04c0,0.58-0.47,1.06-1.06,1.06h-3.39c-0.58,0-1.06-0.47-1.06-1.06V24.3 c0-0.58,0.47-1.06,1.06-1.06h3.39C39.62,23.24,40.09,23.72,40.09,24.3z"/><path fill="#fcd131" d="M48.78,20.23v15.12c0,0.58-0.47,1.06-1.06,1.06h-3.39c-0.58,0-1.06-0.47-1.06-1.06V20.23 c0-0.58,0.47-1.06,1.06-1.06h3.39C48.3,19.17,48.78,19.64,48.78,20.23z"/><g><path fill="#e5e5e5" d="M47.87,43.34H18.13c-0.5,0-0.9-0.4-0.9-0.9c0-0.5,0.4-0.9,0.9-0.9h29.75c0.5,0,0.9,0.4,0.9,0.9 C48.78,42.93,48.37,43.34,47.87,43.34z"/></g><g><path fill="#e5e5e5" d="M47.87,50.27H18.13c-0.5,0-0.9-0.4-0.9-0.9s0.4-0.9,0.9-0.9h29.75c0.5,0,0.9,0.4,0.9,0.9 S48.37,50.27,47.87,50.27z"/></g><g><path fill="#e5e5e5" d="M47.87,57.21H18.13c-0.5,0-0.9-0.4-0.9-0.9s0.4-0.9,0.9-0.9h29.75c0.5,0,0.9,0.4,0.9,0.9 S48.37,57.21,47.87,57.21z"/></g></svg>