<svg xmlns="http://www.w3.org/2000/svg"  viewBox="0 0 40 40" width="512px" height="512px"><path fill="#8bb7f0" d="M1.5 26.5H13.5V38.5H1.5z"/><path fill="#4e7ab5" d="M13,27v11H2V27H13 M14,26H1v13h13V26L14,26z"/><path fill="#f5ce85" d="M27.77 2.77H37.230000000000004V12.23H27.77z" transform="rotate(-45.001 32.5 7.5)"/><path fill="#967a44" d="M32.5,1.518L38.482,7.5L32.5,13.482L26.518,7.5L32.5,1.518 M32.5,0.103L25.103,7.5l7.397,7.397 L39.897,7.5L32.5,0.103L32.5,0.103z"/><path fill="#bae0bd" d="M7.5 1.5A6 6 0 1 0 7.5 13.5A6 6 0 1 0 7.5 1.5Z"/><path fill="#5e9c76" d="M7.5,2C10.533,2,13,4.467,13,7.5S10.533,13,7.5,13S2,10.533,2,7.5S4.467,2,7.5,2 M7.5,1 C3.91,1,1,3.91,1,7.5S3.91,14,7.5,14S14,11.09,14,7.5S11.09,1,7.5,1L7.5,1z"/><path fill="#f78f8f" d="M32.5 26.5A6 6 0 1 0 32.5 38.5A6 6 0 1 0 32.5 26.5Z"/><path fill="#c74343" d="M32.5,27c3.033,0,5.5,2.467,5.5,5.5S35.533,38,32.5,38S27,35.533,27,32.5S29.467,27,32.5,27 M32.5,26c-3.59,0-6.5,2.91-6.5,6.5s2.91,6.5,6.5,6.5s6.5-2.91,6.5-6.5S36.09,26,32.5,26L32.5,26z"/><path fill="#36404d" d="M7 17H8V24H7z"/><path fill="#36404d" d="M7.5 15.6L5.5 18 9.5 18z"/><path fill="#36404d" d="M18.5 4.5H19.5V10.5H18.5z" transform="rotate(90 19 7.5)"/><path fill="#36404d" d="M23.4 7.5L21 5.5 21 9.5z"/><path fill="#36404d" d="M32 16H33V23H32z" transform="rotate(-180 32.5 19.5)"/><path fill="#36404d" d="M32.5 24.4L34.5 22 30.5 22z"/></svg>