<?xml version="1.0" encoding="UTF-8"?>
<svg xmlns="http://www.w3.org/2000/svg" xmlns:xlink="http://www.w3.org/1999/xlink" width="20px" height="24px" viewBox="0 0 20 23" version="1.1">
<defs>
<clipPath id="clip1">
  <path d="M 0.0429688 3 L 19.957031 3 L 19.957031 23 L 0.0429688 23 Z M 0.0429688 3 "/>
</clipPath>
<clipPath id="clip2">
  <path d="M 0.0429688 3 L 16 3 L 16 23 L 0.0429688 23 Z M 0.0429688 3 "/>
</clipPath>
<clipPath id="clip3">
  <path d="M 0.0429688 0 L 14 0 L 14 23 L 0.0429688 23 Z M 0.0429688 0 "/>
</clipPath>
<clipPath id="clip4">
  <path d="M 0.0429688 0 L 14 0 L 14 20 L 0.0429688 20 Z M 0.0429688 0 "/>
</clipPath>
<clipPath id="clip5">
  <path d="M 0.0429688 0 L 15 0 L 15 17 L 0.0429688 17 Z M 0.0429688 0 "/>
</clipPath>
<clipPath id="clip6">
  <path d="M 0.0429688 0 L 18 0 L 18 15 L 0.0429688 15 Z M 0.0429688 0 "/>
</clipPath>
<clipPath id="clip7">
  <path d="M 0.0429688 0 L 19.957031 0 L 19.957031 14 L 0.0429688 14 Z M 0.0429688 0 "/>
</clipPath>
<clipPath id="clip8">
  <path d="M 1 0 L 19.957031 0 L 19.957031 14 L 1 14 Z M 1 0 "/>
</clipPath>
<clipPath id="clip9">
  <path d="M 4 0 L 19.957031 0 L 19.957031 16 L 4 16 Z M 4 0 "/>
</clipPath>
<clipPath id="clip10">
  <path d="M 6 0 L 19.957031 0 L 19.957031 19 L 6 19 Z M 6 0 "/>
</clipPath>
<clipPath id="clip11">
  <path d="M 6 0 L 19.957031 0 L 19.957031 23 L 6 23 Z M 6 0 "/>
</clipPath>
<clipPath id="clip12">
  <path d="M 4 3 L 19.957031 3 L 19.957031 23 L 4 23 Z M 4 3 "/>
</clipPath>
</defs>
<g id="surface1">
<path style=" stroke:none;fill-rule:nonzero;fill:rgb(90.196078%,90.196078%,90.196078%);fill-opacity:1;" d="M 11.042969 21.769531 C 11.042969 22.375 10.535156 22.867188 9.90625 22.867188 C 9.277344 22.867188 8.769531 22.375 8.769531 21.769531 C 8.769531 21.164062 9.277344 20.671875 9.90625 20.671875 C 10.535156 20.671875 11.042969 21.164062 11.042969 21.769531 Z M 11.042969 21.769531 "/>
<path style=" stroke:none;fill-rule:nonzero;fill:rgb(98.431373%,69.019608%,23.137255%);fill-opacity:1;" d="M 10.210938 4.332031 C 10.128906 4.328125 10.042969 4.324219 9.960938 4.324219 C 9.875 4.324219 9.792969 4.328125 9.707031 4.332031 C 5.585938 4.492188 2.503906 8.777344 4.320312 12.351562 L 4.40625 12.515625 C 5.375 14.121094 6.636719 13.695312 6.636719 15.523438 L 6.636719 16.816406 L 13.3125 16.816406 L 13.3125 15.507812 C 13.3125 13.6875 14.453125 14.058594 15.390625 12.527344 L 15.488281 12.332031 C 17.273438 8.753906 14.324219 4.492188 10.210938 4.332031 Z M 10.210938 4.332031 "/>
<path style=" stroke:none;fill-rule:nonzero;fill:rgb(100%,75.294118%,42.352941%);fill-opacity:1;" d="M 10.210938 4.332031 C 10.128906 4.328125 10.042969 4.324219 9.960938 4.324219 C 9.875 4.324219 9.792969 4.328125 9.707031 4.332031 C 7.894531 4.402344 6.285156 5.265625 5.207031 6.519531 C 6.214844 5.707031 7.492188 5.179688 8.886719 5.125 C 8.96875 5.121094 9.054688 5.117188 9.136719 5.117188 C 9.222656 5.117188 9.304688 5.121094 9.390625 5.125 C 13.5 5.285156 16.457031 9.546875 14.671875 13.121094 L 14.574219 13.320312 C 14.5 13.4375 14.425781 13.542969 14.351562 13.640625 C 14.679688 13.390625 15.050781 13.082031 15.394531 12.527344 L 15.492188 12.332031 C 17.273438 8.753906 14.324219 4.492188 10.210938 4.332031 Z M 10.210938 4.332031 "/>
<g clip-path="url(#clip1)" clip-rule="nonzero">
<path style="fill:none;stroke-width:11.1929;stroke-linecap:butt;stroke-linejoin:miter;stroke:rgb(100%,100%,100%);stroke-opacity:1;stroke-miterlimit:10;" d="M 374.832422 461.197133 C 371.968555 436.019127 369.19707 410.745387 370.213281 385.375913 C 371.137109 360.102174 376.310547 334.636966 388.320312 312.330976 C 391.368945 306.682678 394.971875 301.225848 400.237695 297.396493 C 409.014063 291.173792 421.855273 291.36526 430.446875 297.875162 C 439.038477 304.385065 442.641406 316.734734 439.038477 326.786789 C 435.435547 336.743111 426.197266 343.540215 416.49707 347.943973 C 397.373828 356.751488 315.892187 356.751488 296.676562 347.943973 C 287.06875 343.540215 277.738086 336.743111 274.135156 326.786789 C 270.439844 316.734734 274.135156 304.385065 282.726758 297.875162 C 291.410742 291.36526 304.15957 291.173792 312.935938 297.396493 C 318.201758 301.225848 321.804688 306.682678 324.85332 312.330976 C 336.955469 334.636966 342.036523 360.102174 342.960352 385.375913 C 343.976562 410.745387 341.205078 436.019127 338.341211 461.197133 " transform="matrix(0.0422833,0,0,0.0408032,-5.263214,-2.46286)"/>
</g>
<path style=" stroke:none;fill-rule:nonzero;fill:rgb(80%,80%,80%);fill-opacity:1;" d="M 12.382812 21.769531 L 7.609375 21.769531 C 7.226562 21.769531 6.628906 21.484375 6.628906 21.132812 L 6.628906 16.492188 C 6.628906 16.246094 6.835938 16.046875 7.089844 16.046875 L 12.898438 16.046875 C 13.15625 16.046875 13.363281 16.246094 13.363281 16.492188 L 13.363281 21.132812 C 13.363281 21.484375 12.761719 21.769531 12.382812 21.769531 Z M 12.382812 21.769531 "/>
<path style=" stroke:none;fill-rule:nonzero;fill:rgb(90.196078%,90.196078%,90.196078%);fill-opacity:1;" d="M 13.375 16.816406 L 6.226562 17.648438 C 5.921875 17.683594 5.648438 17.472656 5.609375 17.179688 L 5.597656 17.078125 C 5.558594 16.78125 5.777344 16.515625 6.082031 16.480469 L 13.230469 15.648438 C 13.535156 15.613281 13.808594 15.824219 13.847656 16.117188 L 13.859375 16.21875 C 13.898438 16.515625 13.679688 16.78125 13.375 16.816406 Z M 13.375 16.816406 "/>
<path style=" stroke:none;fill-rule:nonzero;fill:rgb(90.196078%,90.196078%,90.196078%);fill-opacity:1;" d="M 13.621094 18.753906 L 6.46875 19.585938 C 6.167969 19.625 5.890625 19.414062 5.851562 19.117188 L 5.839844 19.015625 C 5.800781 18.722656 6.019531 18.457031 6.324219 18.417969 L 13.472656 17.585938 C 13.777344 17.550781 14.054688 17.761719 14.089844 18.054688 L 14.105469 18.160156 C 14.140625 18.453125 13.921875 18.722656 13.621094 18.753906 Z M 13.621094 18.753906 "/>
<path style=" stroke:none;fill-rule:nonzero;fill:rgb(90.196078%,90.196078%,90.196078%);fill-opacity:1;" d="M 13.859375 20.695312 L 6.710938 21.527344 C 6.40625 21.566406 6.132812 21.355469 6.09375 21.0625 L 6.082031 20.957031 C 6.042969 20.664062 6.261719 20.398438 6.566406 20.359375 L 13.714844 19.527344 C 14.019531 19.492188 14.292969 19.703125 14.332031 19.996094 L 14.34375 20.101562 C 14.382812 20.394531 14.164062 20.660156 13.859375 20.695312 Z M 13.859375 20.695312 "/>
<path style=" stroke:none;fill-rule:nonzero;fill:rgb(70.196078%,70.196078%,70.196078%);fill-opacity:1;" d="M 6.628906 19.570312 L 6.628906 19.9375 L 13.363281 19.15625 L 13.363281 18.785156 Z M 6.628906 19.570312 "/>
<path style=" stroke:none;fill-rule:nonzero;fill:rgb(70.196078%,70.196078%,70.196078%);fill-opacity:1;" d="M 13.320312 16.824219 L 6.628906 17.601562 L 6.628906 17.972656 L 13.320312 17.191406 C 13.332031 17.191406 13.347656 17.1875 13.359375 17.183594 L 13.359375 16.8125 C 13.347656 16.816406 13.335938 16.820312 13.320312 16.824219 Z M 13.320312 16.824219 "/>
<path style=" stroke:none;fill-rule:nonzero;fill:rgb(70.196078%,70.196078%,70.196078%);fill-opacity:1;" d="M 6.867188 21.511719 C 7.074219 21.667969 7.378906 21.769531 7.609375 21.769531 L 7.8125 21.769531 L 13.363281 21.125 L 13.363281 20.753906 Z M 6.867188 21.511719 "/>
<g clip-path="url(#clip2)" clip-rule="nonzero">
<path style="fill:none;stroke-width:18.6548;stroke-linecap:butt;stroke-linejoin:miter;stroke:rgb(98.431373%,69.019608%,23.137255%);stroke-opacity:1;stroke-miterlimit:10;" d="M 181.475195 453.538424 L 223.324609 417.829693 " transform="matrix(0.0422833,0,0,0.0408032,-5.263214,-2.46286)"/>
<path style="fill:none;stroke-width:18.6548;stroke-linecap:butt;stroke-linejoin:miter;stroke:rgb(98.431373%,69.019608%,23.137255%);stroke-opacity:1;stroke-miterlimit:10;" d="M 181.475195 453.538424 L 223.324609 417.829693 " transform="matrix(0.0422833,0,0,0.0408032,-5.263214,-2.46286)"/>
</g>
<g clip-path="url(#clip3)" clip-rule="nonzero">
<path style="fill:none;stroke-width:18.6548;stroke-linecap:butt;stroke-linejoin:miter;stroke:rgb(98.431373%,69.019608%,23.137255%);stroke-opacity:1;stroke-miterlimit:10;" d="M 133.34375 361.729649 L 186.371484 347.656771 " transform="matrix(0.0422833,0,0,0.0408032,-5.263214,-2.46286)"/>
<path style="fill:none;stroke-width:18.6548;stroke-linecap:butt;stroke-linejoin:miter;stroke:rgb(98.431373%,69.019608%,23.137255%);stroke-opacity:1;stroke-miterlimit:10;" d="M 133.34375 361.729649 L 186.371484 347.656771 " transform="matrix(0.0422833,0,0,0.0408032,-5.263214,-2.46286)"/>
</g>
<g clip-path="url(#clip4)" clip-rule="nonzero">
<path style="fill:none;stroke-width:18.6548;stroke-linecap:butt;stroke-linejoin:miter;stroke:rgb(98.431373%,69.019608%,23.137255%);stroke-opacity:1;stroke-miterlimit:10;" d="M 129.556055 258.145609 L 183.507617 268.293399 " transform="matrix(0.0422833,0,0,0.0408032,-5.263214,-2.46286)"/>
<path style="fill:none;stroke-width:18.6548;stroke-linecap:butt;stroke-linejoin:miter;stroke:rgb(98.431373%,69.019608%,23.137255%);stroke-opacity:1;stroke-miterlimit:10;" d="M 129.556055 258.145609 L 183.507617 268.293399 " transform="matrix(0.0422833,0,0,0.0408032,-5.263214,-2.46286)"/>
</g>
<g clip-path="url(#clip5)" clip-rule="nonzero">
<path style="fill:none;stroke-width:18.6548;stroke-linecap:butt;stroke-linejoin:miter;stroke:rgb(98.431373%,69.019608%,23.137255%);stroke-opacity:1;stroke-miterlimit:10;" d="M 170.851172 162.986149 L 215.102539 195.535663 " transform="matrix(0.0422833,0,0,0.0408032,-5.263214,-2.46286)"/>
<path style="fill:none;stroke-width:18.6548;stroke-linecap:butt;stroke-linejoin:miter;stroke:rgb(98.431373%,69.019608%,23.137255%);stroke-opacity:1;stroke-miterlimit:10;" d="M 170.851172 162.986149 L 215.102539 195.535663 " transform="matrix(0.0422833,0,0,0.0408032,-5.263214,-2.46286)"/>
</g>
<g clip-path="url(#clip6)" clip-rule="nonzero">
<path style="fill:none;stroke-width:18.6548;stroke-linecap:butt;stroke-linejoin:miter;stroke:rgb(98.431373%,69.019608%,23.137255%);stroke-opacity:1;stroke-miterlimit:10;" d="M 249.099414 95.11084 L 275.058984 143.456441 " transform="matrix(0.0422833,0,0,0.0408032,-5.263214,-2.46286)"/>
<path style="fill:none;stroke-width:18.6548;stroke-linecap:butt;stroke-linejoin:miter;stroke:rgb(98.431373%,69.019608%,23.137255%);stroke-opacity:1;stroke-miterlimit:10;" d="M 249.099414 95.11084 L 275.058984 143.456441 " transform="matrix(0.0422833,0,0,0.0408032,-5.263214,-2.46286)"/>
</g>
<g clip-path="url(#clip7)" clip-rule="nonzero">
<path style="fill:none;stroke-width:18.6548;stroke-linecap:butt;stroke-linejoin:miter;stroke:rgb(98.431373%,69.019608%,23.137255%);stroke-opacity:1;stroke-miterlimit:10;" d="M 349.057617 67.635221 L 351.551953 122.490725 " transform="matrix(0.0422833,0,0,0.0408032,-5.263214,-2.46286)"/>
<path style="fill:none;stroke-width:18.6548;stroke-linecap:butt;stroke-linejoin:miter;stroke:rgb(98.431373%,69.019608%,23.137255%);stroke-opacity:1;stroke-miterlimit:10;" d="M 349.057617 67.635221 L 351.551953 122.490725 " transform="matrix(0.0422833,0,0,0.0408032,-5.263214,-2.46286)"/>
</g>
<g clip-path="url(#clip8)" clip-rule="nonzero">
<path style="fill:none;stroke-width:18.6548;stroke-linecap:butt;stroke-linejoin:miter;stroke:rgb(98.431373%,69.019608%,23.137255%);stroke-opacity:1;stroke-miterlimit:10;" d="M 451.048242 85.920389 L 429.707812 136.372135 " transform="matrix(0.0422833,0,0,0.0408032,-5.263214,-2.46286)"/>
<path style="fill:none;stroke-width:18.6548;stroke-linecap:butt;stroke-linejoin:miter;stroke:rgb(98.431373%,69.019608%,23.137255%);stroke-opacity:1;stroke-miterlimit:10;" d="M 451.048242 85.920389 L 429.707812 136.372135 " transform="matrix(0.0422833,0,0,0.0408032,-5.263214,-2.46286)"/>
</g>
<g clip-path="url(#clip9)" clip-rule="nonzero">
<path style="fill:none;stroke-width:18.6548;stroke-linecap:butt;stroke-linejoin:miter;stroke:rgb(98.431373%,69.019608%,23.137255%);stroke-opacity:1;stroke-miterlimit:10;" d="M 535.116602 146.424191 L 494.098633 182.898793 " transform="matrix(0.0422833,0,0,0.0408032,-5.263214,-2.46286)"/>
<path style="fill:none;stroke-width:18.6548;stroke-linecap:butt;stroke-linejoin:miter;stroke:rgb(98.431373%,69.019608%,23.137255%);stroke-opacity:1;stroke-miterlimit:10;" d="M 535.116602 146.424191 L 494.098633 182.898793 " transform="matrix(0.0422833,0,0,0.0408032,-5.263214,-2.46286)"/>
</g>
<g clip-path="url(#clip10)" clip-rule="nonzero">
<path style="fill:none;stroke-width:18.6548;stroke-linecap:butt;stroke-linejoin:miter;stroke:rgb(98.431373%,69.019608%,23.137255%);stroke-opacity:1;stroke-miterlimit:10;" d="M 585.00332 237.371361 L 532.160352 252.401577 " transform="matrix(0.0422833,0,0,0.0408032,-5.263214,-2.46286)"/>
<path style="fill:none;stroke-width:18.6548;stroke-linecap:butt;stroke-linejoin:miter;stroke:rgb(98.431373%,69.019608%,23.137255%);stroke-opacity:1;stroke-miterlimit:10;" d="M 585.00332 237.371361 L 532.160352 252.401577 " transform="matrix(0.0422833,0,0,0.0408032,-5.263214,-2.46286)"/>
</g>
<g clip-path="url(#clip11)" clip-rule="nonzero">
<path style="fill:none;stroke-width:18.6548;stroke-linecap:butt;stroke-linejoin:miter;stroke:rgb(98.431373%,69.019608%,23.137255%);stroke-opacity:1;stroke-miterlimit:10;" d="M 589.068164 342.582877 L 535.578516 330.041741 " transform="matrix(0.0422833,0,0,0.0408032,-5.263214,-2.46286)"/>
<path style="fill:none;stroke-width:18.6548;stroke-linecap:butt;stroke-linejoin:miter;stroke:rgb(98.431373%,69.019608%,23.137255%);stroke-opacity:1;stroke-miterlimit:10;" d="M 589.068164 342.582877 L 535.578516 330.041741 " transform="matrix(0.0422833,0,0,0.0408032,-5.263214,-2.46286)"/>
</g>
<g clip-path="url(#clip12)" clip-rule="nonzero">
<path style="fill:none;stroke-width:18.6548;stroke-linecap:butt;stroke-linejoin:miter;stroke:rgb(98.431373%,69.019608%,23.137255%);stroke-opacity:1;stroke-miterlimit:10;" d="M 553.316016 434.391651 L 504.907422 408.447774 " transform="matrix(0.0422833,0,0,0.0408032,-5.263214,-2.46286)"/>
<path style="fill:none;stroke-width:18.6548;stroke-linecap:butt;stroke-linejoin:miter;stroke:rgb(98.431373%,69.019608%,23.137255%);stroke-opacity:1;stroke-miterlimit:10;" d="M 553.316016 434.391651 L 504.907422 408.447774 " transform="matrix(0.0422833,0,0,0.0408032,-5.263214,-2.46286)"/>
</g>
</g>
</svg>
