<svg xmlns="http://www.w3.org/2000/svg"  viewBox="0 0 512 512" width="512px" height="512px"><path fill="#254250" d="M291.421,96h-70.842C178.286,96,144,130.286,144,172.579v157.985C144,346.821,157.179,360,173.436,360 h165.127C354.821,360,368,346.821,368,330.564V172.579C368,130.286,333.714,96,291.421,96z"/><path fill="#65B6DB" d="M400,488H112v-33.65c0-27.55,17.968-51.878,44.3-59.981L216,376h80l59.7,18.369 c26.332,8.102,44.3,32.431,44.3,59.981V488z"/><polygon fill="#D1606D" points="216,376 296,376 256,487.999"/><path fill="#DAAE83" d="M296,328h-80v40c0,22.091,17.909,40,40,40h0c22.091,0,40-17.909,40-40V328z"/><path fill="#FC9" d="M256,344L256,344c-44.183,0-80-35.817-80-80v-62.995c0-4.974,4.032-9.005,9.005-9.005h8.886 c3.816,0,7.38,1.907,9.497,5.083l9.265,13.898c1.912,2.867,5.659,3.863,8.742,2.322l40.194-20.097 c1.585-0.792,3.333-1.205,5.105-1.205h60.3c4.974,0,9.005,4.032,9.005,9.005V264C336,308.183,300.183,344,256,344z"/><path fill="#683036" d="M392,208c-4.418,0-8-3.582-8-8v-40c0-70.58-57.42-128-128-128S128,89.42,128,160v40c0,4.418-3.582,8-8,8 s-8-3.582-8-8v-40c0-79.402,64.598-144,144-144s144,64.598,144,144v40C400,204.418,396.418,208,392,208z"/><path fill="#65B6DB" d="M120,280L120,280c-13.255,0-24-10.745-24-24v-48c0-13.255,10.745-24,24-24h0c13.255,0,24,10.745,24,24v48 C144,269.255,133.255,280,120,280z"/><path fill="#97464F" d="M96,264L96,264c-17.673,0-32-14.327-32-32v0c0-17.673,14.327-32,32-32h0V264z"/><path fill="#97464F" d="M416,264L416,264c17.673,0,32-14.327,32-32v0c0-17.673-14.327-32-32-32h0V264z"/><path fill="#DAAE83" d="M346.312,260.563L336,264v-56h32l-5.628,33.768C360.913,250.524,354.733,257.756,346.312,260.563z"/><path fill="#DAAE83" d="M165.688,260.563L176,264v-56h-32l5.628,33.768C151.087,250.524,157.267,257.756,165.688,260.563z"/><path fill="#683036" d="M392,328H256c-4.418,0-8-3.582-8-8s3.582-8,8-8h128v-40c0-4.418,3.582-8,8-8s8,3.582,8,8v48 C400,324.418,396.418,328,392,328z"/><path fill="#65B6DB" d="M392,280L392,280c13.255,0,24-10.745,24-24v-48c0-13.255-10.745-24-24-24h0c-13.255,0-24,10.745-24,24v48 C368,269.255,378.745,280,392,280z"/><path fill="#65B6DB" d="M268,320h-24c-6.627,0-12-5.373-12-12l0,0c0-6.627,5.373-12,12-12h24c6.627,0,12,5.373,12,12l0,0 C280,314.627,274.627,320,268,320z"/></svg>