<?xml version="1.0" encoding="UTF-8"?>
<svg xmlns="http://www.w3.org/2000/svg" xmlns:xlink="http://www.w3.org/1999/xlink" width="30.81pt" height="35.5pt" viewBox="0 0 25.5 24" version="1.1">
<defs>
<clipPath id="clip1">
  <path d="M 0 30 L 26 30 L 26 35.5 L 0 35.5 Z M 0 30 "/>
</clipPath>
<clipPath id="clip2">
  <path d="M 28 17 L 30.808594 17 L 30.808594 22 L 28 22 Z M 28 17 "/>
</clipPath>
</defs>
<g id="surface1">
<path style=" stroke:none;fill-rule:nonzero;fill:rgb(13.299561%,11.799622%,12.199402%);fill-opacity:1;" d="M 5.9375 13.859375 L 9.585938 13.859375 L 9.585938 11.59375 L 5.957031 11.59375 C 6.347656 9.414063 7.785156 7.601563 9.726563 6.691406 L 9.726563 4.171875 C 6.105469 5.367188 3.492188 8.777344 3.492188 12.796875 C 3.492188 16.832031 6.125 20.25 9.761719 21.429688 L 9.761719 18.894531 C 7.765625 17.96875 6.300781 16.101563 5.9375 13.859375 "/>
<path style=" stroke:none;fill-rule:nonzero;fill:rgb(13.299561%,11.799622%,12.199402%);fill-opacity:1;" d="M 15.25 6.605469 L 15.25 4.125 C 14.402344 3.863281 13.503906 3.71875 12.570313 3.71875 C 11.722656 3.71875 10.898438 3.835938 10.121094 4.054688 L 10.121094 6.519531 C 10.578125 6.339844 11.058594 6.210938 11.558594 6.132813 L 11.558594 20.273438 L 11.566406 20.273438 L 11.566406 21.820313 C 11.898438 21.855469 12.230469 21.875 12.570313 21.875 C 12.984375 21.875 13.390625 21.84375 13.789063 21.792969 L 13.789063 19.402344 C 13.789063 19.402344 13.785156 19.402344 13.785156 19.402344 L 13.785156 6.164063 C 14.292969 6.257813 14.785156 6.402344 15.25 6.605469 "/>
<path style=" stroke:none;fill-rule:nonzero;fill:rgb(13.299561%,11.799622%,12.199402%);fill-opacity:1;" d="M 21.59375 11.839844 L 19.242188 11.839844 C 19.285156 12.148438 19.3125 12.464844 19.3125 12.78125 C 19.3125 14.386719 18.75 15.855469 17.816406 17.011719 L 17.816406 8.558594 C 17.820313 8.5625 17.824219 8.566406 17.828125 8.570313 L 17.828125 5.398438 C 17.164063 4.925781 16.433594 4.539063 15.65625 4.257813 L 15.65625 6.457031 L 15.652344 6.457031 L 15.652344 18.976563 L 15.667969 18.976563 L 15.667969 21.332031 C 19.15625 20.066406 21.648438 16.722656 21.648438 12.796875 C 21.648438 12.472656 21.628906 12.152344 21.59375 11.839844 "/>
<path style=" stroke:none;fill-rule:nonzero;fill:rgb(13.299561%,11.799622%,12.199402%);fill-opacity:1;" d="M 19.4375 10.507813 C 19.519531 10.421875 19.625 10.382813 19.75 10.382813 C 19.921875 10.382813 20.042969 10.4375 20.125 10.550781 C 20.167969 10.613281 20.191406 10.675781 20.195313 10.742188 L 19.980469 10.742188 C 19.964844 10.691406 19.949219 10.65625 19.925781 10.628906 C 19.890625 10.585938 19.832031 10.5625 19.757813 10.5625 C 19.683594 10.5625 19.621094 10.59375 19.578125 10.65625 C 19.535156 10.71875 19.511719 10.808594 19.511719 10.921875 C 19.511719 11.039063 19.535156 11.125 19.582031 11.179688 C 19.628906 11.238281 19.6875 11.265625 19.757813 11.265625 C 19.832031 11.265625 19.886719 11.242188 19.925781 11.195313 C 19.949219 11.167969 19.964844 11.128906 19.980469 11.074219 L 20.191406 11.074219 C 20.171875 11.1875 20.125 11.277344 20.050781 11.347656 C 19.976563 11.417969 19.878906 11.453125 19.761719 11.453125 C 19.617188 11.453125 19.5 11.40625 19.417969 11.308594 C 19.335938 11.214844 19.292969 11.085938 19.292969 10.921875 C 19.292969 10.742188 19.339844 10.605469 19.4375 10.507813 "/>
<path style=" stroke:none;fill-rule:nonzero;fill:rgb(13.299561%,11.799622%,12.199402%);fill-opacity:1;" d="M 21.011719 10.402344 L 21.316406 10.402344 L 21.316406 11.421875 L 21.117188 11.421875 L 21.117188 10.730469 C 21.117188 10.710938 21.117188 10.683594 21.117188 10.648438 C 21.117188 10.609375 21.121094 10.585938 21.121094 10.566406 L 20.925781 11.421875 L 20.71875 11.421875 L 20.527344 10.566406 L 20.527344 10.648438 C 20.527344 10.683594 20.527344 10.710938 20.527344 10.730469 L 20.527344 11.421875 L 20.328125 11.421875 L 20.328125 10.402344 L 20.640625 10.402344 L 20.824219 11.203125 "/>
<path style=" stroke:none;fill-rule:nonzero;fill:rgb(13.299561%,11.799622%,12.199402%);fill-opacity:1;" d="M 12.667969 1.726563 C 6.636719 1.726563 1.730469 6.632813 1.730469 12.667969 C 1.730469 18.699219 6.636719 23.605469 12.667969 23.605469 C 18.703125 23.605469 23.609375 18.699219 23.609375 12.667969 C 23.609375 6.632813 18.703125 1.726563 12.667969 1.726563 M 12.667969 25.335938 C 5.683594 25.335938 0 19.652344 0 12.667969 C 0 5.679688 5.683594 -0.00390625 12.667969 -0.00390625 C 19.65625 -0.00390625 25.339844 5.679688 25.339844 12.667969 C 25.339844 19.652344 19.65625 25.335938 12.667969 25.335938 "/>
</g>
</svg>
