<svg xmlns="http://www.w3.org/2000/svg"  viewBox="0 0 48 48" width="512px" height="512px"><path fill="#757575" d="M45,42.286c0,0-1.75-4.286-7-4.286s-7,4.286-7,4.286V44h14V42.286z"/><path fill="#2196f3" d="M18,18.27l-0.34,4.61v0.05L16.11,44h-7.4L7.76,31.31L5,29.5v-7.63c0-2.24,1.06-4.22,2.75-5.47	c0.05-0.04,0.09-0.07,0.14-0.11H7.9c0.27-0.19,0.57-0.37,0.87-0.52c0.24-0.12,0.49-0.23,0.75-0.33c0.06-0.02,0.12-0.04,0.19-0.06	c0.72-0.24,1.5-0.38,2.31-0.38c0.82,0,1.55,0.15,2.19,0.38c0.12,0.03,0.22,0.08,0.33,0.12c0.26,0.1,0.5,0.22,0.73,0.34	c0.17,0.09,0.32,0.18,0.47,0.27c0.1,0.06,0.19,0.13,0.28,0.19c0.03,0.02,0.06,0.04,0.09,0.06c0.06,0.04,0.11,0.08,0.16,0.12	c0.01,0,0.02,0,0.02,0.02h0.01c0.06,0.04,0.12,0.08,0.17,0.14l0.18,0.15h0.01c0.09,0.07,0.17,0.15,0.25,0.22l0.41,0.41	c0.06,0.07,0.12,0.13,0.17,0.19l0.02,0.02C17.83,18,18,18.27,18,18.27z"/><path fill="#ffba57" d="M12,13c-2.206,0-4-1.794-4-4s1.794-4,4-4s4,1.794,4,4S14.206,13,12,13L12,13z"/><path fill="#ffba57" d="M27,36c-2.206,0-4-1.794-4-4s1.794-4,4-4s4,1.794,4,4S29.206,36,27,36"/><path fill="#ffba57" d="M38,36c-2.206,0-4-1.794-4-4s1.794-4,4-4s4,1.794,4,4S40.206,36,38,36"/><path fill="#2196f3" d="M26.34,20.94L21.7,24.6c-0.34,0.27-0.75,0.4-1.14,0.4c-0.48,0-0.94-0.18-1.3-0.54l-1.6-1.58	l-0.19-0.19l-3.28-3.26l-0.01-0.01l-0.34-0.35c-0.71-0.7-0.71-1.85,0.01-2.55c0.51-0.5,1.26-0.65,1.89-0.41	c0.1,0.03,0.21,0.08,0.3,0.14c0.02,0.01,0.04,0.02,0.06,0.03c0.01,0,0.02,0,0.02,0.02h0.01c0.06,0.04,0.12,0.08,0.17,0.14	c0.04,0.02,0.08,0.05,0.12,0.09l0.06,0.06h0.01l0.42,0.42l0.41,0.41l3.38,3.36l3.36-2.65c0.78-0.63,1.93-0.5,2.56,0.28	C27.25,19.18,27.12,20.31,26.34,20.94z"/><path fill="#bdbdbd" d="M34,42.286c0,0-1.75-4.286-7-4.286s-7,4.286-7,4.286V44h14V42.286z"/><path fill="#1565c0" d="M16.04,16.25l-0.02,0.05l-1.83,3.13l-0.01,0.02l-1.95,3.35l-4.34-6.51H7.9	c0.27-0.19,0.57-0.37,0.87-0.52c0.24-0.12,0.49-0.23,0.75-0.33c0.06-0.02,0.12-0.04,0.19-0.06l2.41,3.6l2.09-3.6	c0.12,0.03,0.22,0.08,0.33,0.12c0.26,0.1,0.5,0.22,0.73,0.34c0.17,0.09,0.32,0.18,0.47,0.27C15.84,16.14,15.95,16.19,16.04,16.25z"/><ellipse cx="12.311" cy="22.617" fill="#ffba57" rx="1.522" ry="1.538"/><polygon fill="#ffba57" points="14.464,24.792 12.312,22.615 13.389,21.529 15.54,23.704"/></svg>