<svg xmlns="http://www.w3.org/2000/svg"  viewBox="0 0 64 64" width="512px" height="512px"><path fill="#91cbd7" d="M61,59c-8.36,0-14.93-2.71-20.17-6.95c-1.75-5.38-2.58-13.21-3.21-21.05C43.5,17,45.5,3,49,3	C56,3,50,59,61,59z"/><path fill="#91cbd7" d="M26.38,31c-0.63,7.84-1.46,15.67-3.21,21.05C17.93,56.29,11.36,59,3,59C14,59,8,3,15,3	C18.5,3,20.5,17,26.38,31z"/><path fill="#4b425a" d="M47,59h-6h-6h-6h-6h-6c2.86,0,4.8-2.71,6.17-6.95c3.49-2.81,6.39-6.31,8.83-10.13	c2.44,3.82,5.34,7.32,8.83,10.13C42.2,56.29,44.14,59,47,59z"/><path fill="#ed6571" d="M37.62,31c-1.56,3.73-3.4,7.46-5.62,10.92c-2.22-3.46-4.06-7.19-5.62-10.92C27.5,17,28,3,32,3	S36.5,17,37.62,31z"/><path fill="#4e9bb9" d="M40.83,52.05C46.07,56.29,52.64,59,61,59h-2h-6h-6C44.14,59,42.2,56.29,40.83,52.05z"/><path fill="#4e9bb9" d="M3,59c8.36,0,14.93-2.71,20.17-6.95C21.8,56.29,19.86,59,17,59h-6H5H3z"/><path fill="#68607c" d="M37.62,31c0.63,7.84,1.46,15.67,3.21,21.05c-3.49-2.81-6.39-6.31-8.83-10.13	C34.22,38.46,36.06,34.73,37.62,31z"/><path fill="#68607c" d="M26.38,31c1.56,3.73,3.4,7.46,5.62,10.92c-2.44,3.82-5.34,7.32-8.83,10.13	C24.92,46.67,25.75,38.84,26.38,31z"/><rect width="60" height="2" x="2" y="58" fill="#68607c"/><rect width="2" height="3" x="4" y="59" fill="#68607c"/><rect width="2" height="3" x="10" y="59" fill="#68607c"/><rect width="2" height="3" x="16" y="59" fill="#68607c"/><rect width="2" height="3" x="22" y="59" fill="#68607c"/><rect width="2" height="3" x="28" y="59" fill="#68607c"/><rect width="2" height="3" x="34" y="59" fill="#68607c"/><rect width="2" height="3" x="40" y="59" fill="#68607c"/><rect width="2" height="3" x="46" y="59" fill="#68607c"/><rect width="2" height="3" x="52" y="59" fill="#68607c"/><rect width="2" height="3" x="58" y="59" fill="#68607c"/></svg>