<svg xmlns="http://www.w3.org/2000/svg"  viewBox="0 0 68 68" width="512px" height="512px"><path fill="#ffd80c" d="M37.3211021,52.4513054c-0.366642,2.4342117-2.5929871,4.2610092-5.0537071,4.1927414 c-0.582468-0.0161591-1.1337414-0.1305504-1.6469154-0.3293533v9.6864738H6.9730487c-2.7614241,0-5-2.238575-5-5V37.3537369 h9.6954346c-0.2058859,0.5103416-0.3221607,1.0563126-0.3400831,1.6293831 c-0.0716887,2.4439659,1.7187757,4.6730881,4.1358595,5.0669365c3.1243505,0.5013809,5.8010874-1.8977776,5.8010874-4.9058571 c0-0.6355782-0.1162758-1.2353134-0.3400841-1.7904625h9.6952171v9.6864738 c0.5551491-0.2148476,1.1548843-0.3313408,1.7904625-0.3313408 C35.4034615,46.7088699,37.7869949,49.3581429,37.3211021,52.4513054z"/><path fill="#5cbeff" d="M59.26791,40.3537369v20.6474304c0,2.761425-2.238575,5-5,5H30.6204796v-9.6864738 c0.5131874,0.1988106,1.0644779,0.3131981,1.646965,0.3293533c2.4607086,0.0682411,4.6870232-1.7585411,5.0536575-4.1927414 c0.465889-3.0931664-1.9176445-5.7424355-4.9101601-5.7424355c-0.6355782,0-1.2353134,0.1164932-1.7904625,0.3313408v-9.6864738 h9.6954346c-0.3490448-0.868351-0.4386559-1.8711128-0.2238083-2.8557396 c0.4476166-2.130764,2.3276901-3.7420082,4.5030441-3.8943462c2.9095039-0.1969242,5.317627,2.094923,5.317627,4.9596195 c0,0.6266212-0.1162758,1.2355347-0.3400841,1.7904663H56.26791C57.9247627,37.3537369,59.26791,38.6968842,59.26791,40.3537369z"/><path fill="#079cff" d="M59.2630882,40.351265v20.6499023c0,2.7600098-2.2299805,5-5,5h-5.619873c2.7600098,0,5-2.2399902,5-5 V40.351265c0-1.6501465-1.3400879-3-3-3h5.619873C57.9232445,37.351265,59.2630882,38.7011185,59.2630882,40.351265z"/><path fill="#b244f1" d="M23.9232445,22.2511673c-0.4702148,3.1000977,1.9099121,5.75,4.9099121,5.75 c0.630127,0,1.2299805-0.119873,1.7900391-0.329834v9.6799316h-9.6999512 c0.2299805,0.5598145,0.3398438,1.1599121,0.3398438,1.7900391c0,3.0100098-2.6699219,5.4099121-5.7998056,4.9099121 c-2.420166-0.3999023-4.2099609-2.6201172-4.130127-5.0700684c0.0100098-0.5700684,0.130127-1.119873,0.3400879-1.6298828 H1.9730486V13.7111282c0-2.7697754,2.2402344-5,5-5h20.6501465c1.6499023,0,3,1.3400879,3,3v6.6801758 c-0.5200195-0.1999512-1.0700684-0.3100586-1.6501465-0.3300781 C26.5130882,17.9911575,24.2831078,19.8212357,23.9232445,22.2511673z"/><path fill="#4cc66e" d="M30.6788979,15.5486946c0.3666363-2.4341993,2.5929489-4.2609835,5.0536575-4.1927414 c0.582489,0.0161543,1.1337776,0.1305428,1.646965,0.3293533V4.9988327c0-1.6568542,1.3431473-3,3-3h20.6474304 c2.761425,0,5.0000038,2.2385764,5.0000038,5v20.6474304c0,1.6568546-1.3431473,3-3.0000038,3h-6.6954346 c0.2058868-0.5103436,0.3221626-1.0563126,0.3400841-1.6293831c0.0716896-2.4439678-1.7187767-4.6730862-4.1358604-5.0669365 c-3.1243515-0.5013828-5.8010864,1.8977795-5.8010864,4.9058552c0,0.6355801,0.1162758,1.2353153,0.3400841,1.7904644h-6.6952171 c-1.6568527,0-3-1.3431454-3-3v-6.6864738c-0.5551491,0.2148476-1.1548843,0.3313408-1.7904625,0.3313408 C32.5965424,21.2911301,30.213007,18.641861,30.6788979,15.5486946z"/><path fill="#14a142" d="M66.0230942,7.0031724v20.6401367c0,1.6599121-1.3398438,3-3,3h-4.119873c1.6599121,0,3-1.3400879,3-3 V7.0031724c0-2.7697754-2.2399902-5-5-5h4.119873C63.7931137,2.0031726,66.0230942,4.233397,66.0230942,7.0031724z"/></svg>