<svg xmlns="http://www.w3.org/2000/svg" width="512" height="512" viewBox="0 0 96 96"><g data-name="Product Marketing"><path fill="#ffcd8a" d="M65.79,19.24,34.17,37.5,2.55,19.24,34.17,1Z"/><polygon fill="#ffe6ad" points="41.98 11.27 20.37 23.76 12.55 19.24 34.17 6.77 41.98 11.27"/><path fill="#ffe6ad" d="M55.79,19.24,34.17,31.73l-7.8-4.51L48,14.74Z"/><polygon fill="#ff9658" points="34.17 37.5 34.17 74 2.55 55.76 2.55 19.24 34.17 37.5"/><path fill="#ffaf6c" d="M30.17,41.35v17.5a1.16,1.16,0,0,1-1.74,1L13.88,51.44a2.63,2.63,0,0,1-1.33-2.3V31.64a1.15,1.15,0,0,1,1.73-1L28.84,39A2.68,2.68,0,0,1,30.17,41.35Z"/><polygon fill="#ff734e" points="34.17 67.29 34.17 74 2.55 55.76 2.55 19.24 8.12 22.46 8.12 52.26 34.17 67.29"/><polygon fill="#ffaf6c" points="34.17 37.5 34.17 74 65.78 55.76 65.78 19.24 34.17 37.5"/><path fill="#ffcd8a" d="M55.74,29.66l-17.25,10a.65.65,0,0,0-.32.57v7.19a.65.65,0,0,0,1,.56L56.39,38a.65.65,0,0,0,.32-.56V30.23A.65.65,0,0,0,55.74,29.66Z"/><polygon fill="#ff9658" points="34.17 67.29 34.17 74 65.79 55.76 65.79 19.24 60.22 22.46 60.22 52.26 34.17 67.29"/><path fill="#ff7d3f" d="M76.76,26.24l16,41a3.09,3.09,0,0,1-3.25,4.21c-8.85-1.09-14.64-2-24-1.11-9.94.95-9.56,1.16-24.81,7.13a5.24,5.24,0,0,1-6.78-3l-5.32-13.6a5.24,5.24,0,0,1,3-6.78c14.49-5.68,14.84-5.34,23.06-11.6,7.48-5.69,11.23-10.44,16.86-17.12A3.1,3.1,0,0,1,76.76,26.24Z"/><path fill="#ffba4e" d="M76.76,26.24,89.09,57.73a3.1,3.1,0,0,1-3.26,4.21c-8.85-1.1-14.64-2-24-1.12l-.42,0a3.51,3.51,0,0,1-3.62-2.22L52.83,46a2.27,2.27,0,0,1,.74-2.65c8.39-6.37,11.16-9.9,17.94-17.94A3.1,3.1,0,0,1,76.76,26.24Z"/><path fill="#ffdd67" d="M61,42.58c-2,1.72-3.77,3.08-5.18,4.14a1.67,1.67,0,0,0-.54,1.93l.6,1.53a1.73,1.73,0,0,0,2.24,1.15L63.94,49a1.28,1.28,0,0,0,.73-1.65L63,43.07A1.27,1.27,0,0,0,61,42.58Z"/><path fill="#ffdd67" d="M64.76,39.92l2.62,6.69a1,1,0,0,0,1.3.57l1.61-.63a1,1,0,0,0,.57-1.3L68,37.85a1,1,0,0,0-1.65-.34c-.44.46-.89.91-1.32,1.34A1,1,0,0,0,64.76,39.92Z"/><path fill="#fff" d="M62.8,42.61l.29.75a.93.93,0,0,1-.25,1c-2.38,2.11-4.46,3.71-6.07,4.93a.93.93,0,0,1-1.42-.4l-.31-.8a.92.92,0,0,1,.3-1.08c1.56-1.17,3.61-2.72,6-4.8A.93.93,0,0,1,62.8,42.61Z"/><path fill="#64a6ee" d="M45.21,48.62l9.23,23.57c-1.89.56-1.83.58-13.71,5.23a5.24,5.24,0,0,1-6.78-3l-5.32-13.6a5.24,5.24,0,0,1,3-6.78C44,49.23,43.48,49.47,45.21,48.62Z"/><path fill="#87ceff" d="M31.88,54A5.19,5.19,0,0,0,29,56.29l2.72,6.93a3.1,3.1,0,0,0,2.08,1.9,1.43,1.43,0,0,0,1.68-1.91Z"/><rect width="3.51" height="2.77" x="29.82" y="56.64" fill="#fff" rx=".83" transform="rotate(-21.38 31.591 58.027)"/><path fill="#64a6ee" d="M36.65,64.73l3.11-1.22c-1.17.46-2.83,1.11-3.1,1.23Z"/><path fill="#4b79df" d="M50.87,63.08l3.57,9.11c-1.89.56-1.83.58-13.71,5.23a5.24,5.24,0,0,1-6.78-3l-3.56-9.11a5.22,5.22,0,0,0,6.78,3C49.57,63.46,49,63.63,50.87,63.08Z"/><rect width="5.81" height="29.85" x="49.62" y="44.42" fill="#352d5b" rx="1.66" transform="rotate(-21.38 52.546 59.35)"/><rect width="5.81" height="24.37" x="48.63" y="44.61" fill="#3f416a" rx="1.66" transform="rotate(-21.38 51.546 56.802)"/><rect width="2.54" height="9.04" x="48.61" y="48.07" fill="#536997" rx=".73" transform="rotate(-21.38 49.898 52.596)"/><rect width="2.54" height="3.86" x="48.54" y="50.49" fill="#6291c9" rx=".73" transform="rotate(-21.38 49.822 52.417)"/><rect width="6.61" height="25.06" x="37.88" y="51.26" fill="#8c97e4" transform="rotate(-21.38 41.201 63.792)"/><rect width="6.61" height="15.4" x="36.12" y="51.59" fill="#e1e7f8" transform="rotate(-21.38 39.445 59.29)"/><path fill="#ff7d3f" d="M28.63,60.87,34,74.47l-5.82-.21a1.89,1.89,0,0,1-1.71-1.21l-2.36-6a1.89,1.89,0,0,1,.43-2Z"/><path fill="#ffba4e" d="M27.14,62.35,24.49,65a1.89,1.89,0,0,0-.43,2l.51,1.3a1.88,1.88,0,0,0,1.71,1.21l1.26,0a1.62,1.62,0,0,0,1.56-2.21Z"/><rect width="5.81" height="5.73" x="50.67" y="59.15" fill="#4e5fb6" transform="rotate(-21.38 53.58 62.014)"/><rect width="5.81" height="3.06" x="50.18" y="59.24" fill="#6782cf" transform="rotate(-21.38 53.1 60.771)"/><path fill="#ff2353" d="M89.8,50.9,87.22,53,82.34,40.49l3.29-.24a2.59,2.59,0,0,1,2.6,1.64l2.36,6A2.59,2.59,0,0,1,89.8,50.9Z"/><path fill="#3f416a" d="M42.13,75H53a0,0,0,0,1,0,0v4a1.46,1.46,0,0,1-1.46,1.46H43.59a1.46,1.46,0,0,1-1.46-1.46V75A0,0,0,0,1,42.13,75Z" transform="rotate(-21.38 47.574 77.695)"/><rect width="10.86" height="2.44" x="41.58" y="75.06" fill="#3a3256" transform="matrix(.93 -.36 .36 .93 -24.58 22.39)"/><path fill="#4e5fb6" d="M62.18,90.4a3.34,3.34,0,0,1-4.52,4.26A25.12,25.12,0,0,1,45.55,81.41L51.73,79a18.54,18.54,0,0,0,8.89,9.74A3.21,3.21,0,0,1,62.18,90.4Z"/><path fill="#e1e7f8" d="M62.18,90.4a3.34,3.34,0,0,1-4.52,4.26A25.12,25.12,0,0,1,45.55,81.41L51.73,79a18.54,18.54,0,0,0,8.89,9.74A3.21,3.21,0,0,1,62.18,90.4Z"/><path fill="#c8cef8" d="M60.1,91.61a3.17,3.17,0,0,1-1.94-.31A25,25,0,0,1,47.29,80.72L51.73,79a18.54,18.54,0,0,0,8.89,9.74A1.56,1.56,0,0,1,60.1,91.61Z"/><rect width="4.18" height="13.39" x="78.85" y="41.53" fill="#ffd36c" rx="1.2" transform="rotate(-21.38 80.952 48.226)"/><path fill="#87ceff" d="M43.32,49.43h2.56a0,0,0,0,1,0,0v11.1a.66.66,0,0,1-.66.66H44a.66.66,0,0,1-.66-.66V49.43A0,0,0,0,1,43.32,49.43Z" transform="rotate(-21.38 44.61 55.328)"/><path fill="#fff" d="M43.35,51.84h1.1a.73.73,0,0,1,.73.73v2a.64.64,0,0,1-.64.64H43.26a.64.64,0,0,1-.64-.64v-2A.73.73,0,0,1,43.35,51.84Z" transform="rotate(-21.38 43.903 53.549)"/><path fill="#302d3d" d="M94.05,66.87,88.77,53.29l2-1.6a3.59,3.59,0,0,0,1.12-4.12l-2.36-6a3.6,3.6,0,0,0-3.6-2.29l-2.56.18L78.09,25.83a4.1,4.1,0,0,0-7-1.17l-4.23,5V19.24a1,1,0,0,0-.53-.88L34.79.13a1,1,0,0,0-1,0L2.17,18.37a1,1,0,0,0-.5.87V55.76a1,1,0,0,0,.5.87l22,12.68,1.56,4a2.9,2.9,0,0,0,2.6,1.85l5.26.19a6.13,6.13,0,0,0,7.6,3l1.09,2.8a2.44,2.44,0,0,0,3,1.46,26.17,26.17,0,0,0,12.19,13,4.3,4.3,0,0,0,6-2.58h0a4.25,4.25,0,0,0-2.12-5.16,17.45,17.45,0,0,1-8-8.37,2.48,2.48,0,0,0,1-3l-1.07-2.77,1-.34a2.74,2.74,0,0,0,2.39,1.38c.7,0,1-.2,3.12-1a2.73,2.73,0,0,0,1.71-2c12.17-1.52,17.78-.61,28.35.72A4.11,4.11,0,0,0,94.05,66.87Zm-8-25.64a1.58,1.58,0,0,1,1.6,1l2.35,6a1.59,1.59,0,0,1-.49,1.83L88,51.34l-3.88-10ZM51.4,60.91,55,59.53,56.3,63l-3.55,1.38Zm-.73-1.86C46.19,47.51,47,49.53,46.26,47.7a.76.76,0,0,1,.43-1c2.22-.86,2.36-1,2.72-.81s.05-.49,4.82,11.77Zm0-14.7A2.75,2.75,0,0,0,48.1,44L46,44.84A2.77,2.77,0,0,0,44.27,48c-1.16.54-1.49.64-9,3.56V38.08L64.91,21v11A83,83,0,0,1,50.71,44.35ZM3.67,21,33.29,38.08v8L3.67,28.93ZM63.9,19.24,34.29,36.34l-13.8-8L50.1,11.28ZM47.78,73.63l-4.31,1.68-1.12-2.89,4.31-1.67Zm-6.16-3.07-1.07-2.77,4.31-1.67,1.07,2.76Zm-1.8-4.63-1.07-2.77,4.31-1.67,1.07,2.76ZM38,61.3,37,58.53l4.31-1.67,1.07,2.76Zm-1.8-4.63L35.1,53.78l4.31-1.67L40.53,55ZM34.29,2.16l13.81,8L18.49,27.22l-13.82-8Zm-30.62,53V31.24l29.62,17.1v4L31.5,53a6.25,6.25,0,0,0-3.76,7.43L24,64.14a2.91,2.91,0,0,0-.86,2.29Zm24.71,18a.9.9,0,0,1-.82-.58c-.35-.91-1-2.62-2.35-6a.94.94,0,0,1,.21-1l3.08-3c4.08,10.5,3.26,8.39,4.2,10.79C30.54,73.25,31.51,73.28,28.38,73.16Zm7,1.38c-.28-.49-5.5-14-5.55-14.15a4.25,4.25,0,0,1,2.42-5.49l1-.39,6.88,17.7h0c.06.1-.28-.74,1.49,3.81l-1,.4A4.25,4.25,0,0,1,35.36,74.54Zm8.75,5.88L43,77.63l8.27-3.22c1.18,3,1.18,2.9,1.08,3.14s.48,0-7.67,3.13A.47.47,0,0,1,44.11,80.42ZM60.4,89.59a2.26,2.26,0,0,1,1.12,2.75c1.27.42,1.28.4,0,.07a2.29,2.29,0,0,1-3.19,1.35A24.12,24.12,0,0,1,47.08,81.92l4.34-1.7A19.54,19.54,0,0,0,60.4,89.59ZM49.64,72.91C37.76,42.34,48.13,69,41.27,51.38c2-.78,2.64-1,3.69-1.49,1.12,2.88,4.52,11.63,8.42,21.63C52.45,71.81,51.7,72.11,49.64,72.91Zm7.16-.21a.76.76,0,0,1-1-.44c-.67-1.72-.22-.55-2.34-6L57,64.87c2.51,6.44,2.5,6.22,2.32,6.59S59,71.84,56.8,72.7ZM90,70.45c-11.91-1.5-14.71-2.07-27.34-.89-.52,0-1,.11-1.55.18l-1.3-3.35a94.77,94.77,0,0,1,11.77-.74,1,1,0,0,0,0-2A97.29,97.29,0,0,0,59,64.47L51.84,46A84.45,84.45,0,0,0,68.12,31.31l1.55,4a1,1,0,1,0,1.86-.73l-1.94-5L72.66,26a2.1,2.1,0,0,1,3.56.6l16,41A2.11,2.11,0,0,1,90,70.45Z"/><path fill="#302d3d" d="M73.64,40a1,1,0,0,0-1.86.72l7,18A1,1,0,0,0,80.64,58Z"/></g></svg>