<svg xmlns="http://www.w3.org/2000/svg"  viewBox="0 0 100 100" width="512px" height="512px"><path fill="#f1bc19" d="M77 12A1 1 0 1 0 77 14A1 1 0 1 0 77 12Z"/><path fill="#e4e4f9" d="M50 13A37 37 0 1 0 50 87A37 37 0 1 0 50 13Z"/><path fill="#f1bc19" d="M83 11A4 4 0 1 0 83 19A4 4 0 1 0 83 11Z"/><path fill="#8889b9" d="M87 22A2 2 0 1 0 87 26A2 2 0 1 0 87 22Z"/><path fill="#fbcd59" d="M81 74A2 2 0 1 0 81 78 2 2 0 1 0 81 74zM20 69A4 4 0 1 0 20 77 4 4 0 1 0 20 69z"/><path fill="#8889b9" d="M25 85A2 2 0 1 0 25 89A2 2 0 1 0 25 85Z"/><path fill="#fff" d="M79.5 32A1.5 1.5 0 1 0 79.5 35A1.5 1.5 0 1 0 79.5 32Z"/><path fill="#ce9065" d="M69.334,70.041c-0.417-2.211-1.319-3.506-3.443-4.147c-0.092-0.028-0.216-0.073-0.356-0.126 c-0.161-0.07-0.365-0.152-0.604-0.245c-1.287-0.544-8.936-3.366-8.936-3.366c-0.63-0.16-1.041-0.609-1.278-1.115 c-0.392-0.835-0.24-3.003-0.24-3.003s-3.198,1.094-5.194,1.467c-1.957,0.19-6.165-2.341-6.165-2.341s-0.099,3.129-0.232,3.824 c-0.105,0.546-0.693,1.007-1.323,1.167l-7.339,2.661c-0.812,0.212-1.591,0.515-2.276,0.938c-1.847,1.14-2.783,2.852-3.259,4.286 c0,0-0.483,3.416-0.464,3.539c-0.046,0.478-0.093,1.004-0.141,1.557c8,5.416,14.424,6.933,25.447,6.451 c5.009-0.219,12.466-2.692,16.372-4.664C69.698,72.573,69.334,70.041,69.334,70.041z"/><path fill="#78a0cf" d="M69.434,70.164c-0.417-2.211-1.319-3.506-3.443-4.147c-0.092-0.028-0.216-0.073-0.356-0.126 c-0.161-0.07-0.365-0.152-0.604-0.245c-0.697-0.295-7.549-2.686-9.751-3.506c-3.005,2.118-4.357,2.933-6.362,2.933 c-2.138,0-3.366-1.294-6.345-3.091l-3.335,1.231c-0.008-0.004-0.017-0.009-0.025-0.013l-0.324,0.085l-4.565,1.655 c-0.812,0.212-1.591,0.515-2.276,0.938c-1.847,1.14-2.783,2.852-3.259,4.286c0,0-0.483,3.416-0.464,3.539 c-0.046,0.478-0.093,5.609-0.141,6.162c8,5.416,14.424,6.933,25.447,6.451c5.008-0.219,12.466-2.692,16.372-4.664 C69.798,77.3,69.434,70.164,69.434,70.164z"/><path fill="#fdfcef" d="M56.023,72.87c-0.756-0.95-1.284-2.052-2.051-2.991c-0.185-0.227-0.199-0.504,0-0.729 c0.432-0.487,1.033-0.734,1.623-0.978c0.649-0.268,1.278-0.561,1.934-0.802c-0.414-1.719-1.232-3.275-2.253-4.711 c-0.135-0.19-0.108-0.375-0.005-0.514c-2.998,2.112-4.349,2.926-6.352,2.926c-2.043,0-3.273-1.189-5.977-2.862 c-0.252,1.567-1.675,3.683-0.621,5.222c0.417,0.608,1.272,0.818,1.549,1.567c0.393,1.061-0.195,2.59-0.223,3.671 c-0.057,2.195,0.547,3.84,1.366,5.819c0.036,0.087,0.042,0.165,0.033,0.236c0.656,1.303,1.396,2.648,1.89,4 c0.433,1.185,0.692,2.418,0.987,3.639c0.528,0.018,1.071,0.027,1.621,0.031c0.491-2.358,1.839-4.646,2.775-6.851 C53.345,77.128,54.308,74.865,56.023,72.87z"/><path fill="#568bc1" d="M35.725 83.783c-.207 0-.375-.168-.375-.375v-3.091c0-.207.168-.375.375-.375S36.1 80.11 36.1 80.317v3.091C36.1 83.615 35.932 83.783 35.725 83.783zM62.512 84.813c-.207 0-.375-.168-.375-.375v-4.121c0-.207.168-.375.375-.375s.375.168.375.375v4.121C62.887 84.646 62.719 84.813 62.512 84.813zM54.612 61.186c0 0 2.436 1.035 4.207 6.728l-4.207 1.553 2.713 3.107-8.016 13.969C49.309 86.541 53.176 72.287 54.612 61.186zM42.984 61.186c0 0-2.435 1.035-4.208 6.728l4.208 1.553-2.712 3.107 7.879 13.969C48.151 86.541 44.421 72.287 42.984 61.186z"/><path fill="#db9e71" d="M61.397,42.712c-0.12-0.008-0.243-0.01-0.371-0.009c-0.995-0.048-1.278,0.349-1.232-0.267 c0.08-1.092-0.072-5.523-0.072-5.747c0-4.591-4.794-8.336-11.119-8.544v-0.014c0.295,0.001,0.255,0.006,0.215,0.007 c-0.041-0.001-0.08-0.006,0.815-0.007v0.014c-6.926,0.208-11.719,3.952-11.719,8.544c0,0.224-0.152,4.654-0.072,5.747 c0.045,0.615-0.238,0.219-1.232,0.267c-0.127,0-0.25,0.001-0.371,0.009c-1.09,0.073-1.972,0.766-2.16,1.625 c0.133,0.081,0.63,3.844,1.434,5.327c0.449,0.828,1.15,0.943,1.87,1.477c0.399,0.296,0.476,0.63,0.585,1.073 c0.404,1.638,1.526,3.031,2.755,4.22c0.607,0.587,4.635,4.881,8.096,4.664c3.477-0.13,7.489-4.077,8.096-4.664 c1.23-1.189,2.351-2.581,2.755-4.22c0.109-0.443,0.186-0.777,0.585-1.073c0.72-0.534,1.421-0.649,1.87-1.477 c0.804-1.482,1.3-5.245,1.434-5.327C63.369,43.478,62.487,42.784,61.397,42.712z"/><path fill="#512c2b" d="M48.88 49.984c.703 0 1.385-.307 1.824-.821.044-.052.038-.13-.013-.174l0 0c-.051-.044-.129-.039-.174.012-.358.409-.955.644-1.637.644-.683 0-1.28-.235-1.637-.644-.024-.028-.059-.042-.093-.042-.029 0-.057.01-.081.03-.051.044-.057.123-.013.174C47.495 49.677 48.177 49.984 48.88 49.984zM46.636 40.479l.446-.857c-1.888-.442-4.06-.372-5.854.185l.563.835C43.265 40.155 45.078 40.094 46.636 40.479zM56.086 40.479l.446-.857c-1.888-.442-4.06-.372-5.854.185l.563.835C52.715 40.155 54.528 40.094 56.086 40.479zM43.919 41.689c-.453 0-.851.3-1.081.753.057-.018.117-.03.179-.03.372 0 .673.336.673.752s-.301.752-.673.752c-.122 0-.234-.039-.333-.102.159.681.651 1.177 1.235 1.177.712 0 1.289-.739 1.289-1.65C45.209 42.428 44.632 41.689 43.919 41.689zM53.786 41.689c-.387 0-.733.219-.969.565.074-.031.153-.05.237-.05.372 0 .673.336.673.752 0 .415-.301.752-.673.752-.231 0-.434-.13-.555-.327.017.893.586 1.61 1.288 1.61.712 0 1.29-.739 1.29-1.65C55.076 42.428 54.499 41.689 53.786 41.689zM54.333 51.897c.053-.043.061-.121.018-.173l0 0c-.043-.053-.121-.062-.174-.019-1.163.927-3.093 1.458-5.297 1.458s-4.134-.532-5.297-1.458c-.023-.018-.05-.027-.077-.027-.036 0-.072.016-.097.046-.043.053-.035.131.018.174 1.313 1.073 3.351 1.713 5.453 1.713C50.982 53.61 53.02 52.97 54.333 51.897z"/><path fill="#472b29" d="M49.97,86.96c-9.176,0-15.096-1.834-22.165-6.62c-0.15-0.102-0.233-0.276-0.218-0.457 c0.01-0.111,0.014-0.49,0.022-1.039c0.033-2.247,0.103-6.922,0.598-8.75c0.673-2.485,1.658-3.458,3.479-4.581 c0.68-0.42,1.492-0.755,2.412-0.996l7.296-2.647c0.522-0.136,0.942-0.477,1.002-0.791c0.029-0.152,0.087-0.628,0.158-2.11 c-1.061-0.75-1.928-1.428-2.181-1.675c-1.607-1.57-2.525-3.003-2.892-4.507c-0.113-0.464-0.162-0.625-0.399-0.804 c-0.214-0.16-0.427-0.279-0.63-0.394c-0.496-0.28-1.008-0.569-1.38-1.264c-0.862-1.608-1.493-4.65-1.493-5.622 c0-0.035,0.004-0.071,0.011-0.105c0.24-1.111,1.316-1.949,2.615-2.038c0.133-0.009,0.267-0.01,0.405-0.01 c0.288-0.013,0.531,0.007,0.721,0.034c-0.039-1.237,0.036-3.885,0.069-5.078c0.008-0.298,0.014-0.495,0.014-0.538 c0-4.658,4.375-8.391,10.373-9.047c0.086-0.066,0.192-0.106,0.301-0.106h0c0.291,0,0.518,0.001,0.694,0.014 c0.015-0.002,0.031-0.003,0.046-0.005l0-0.002v0.002c0.096-0.008,0.217-0.014,0.289-0.009c0.109,0,0.215,0.036,0.301,0.101 c6.244,0.638,10.803,4.377,10.803,9.053c0,0.043,0.006,0.24,0.014,0.538c0.034,1.22,0.111,3.956,0.069,5.078 c0.19-0.027,0.438-0.051,0.746-0.033c0.112,0.005,0.247,0.001,0.378,0.009c1.302,0.089,2.377,0.927,2.616,2.038 c0.008,0.035,0.012,0.07,0.012,0.105c0,1.12-0.669,4.085-1.493,5.622c-0.371,0.694-0.884,0.983-1.379,1.264 c-0.203,0.114-0.416,0.233-0.631,0.395c-0.236,0.177-0.285,0.338-0.393,0.777c-0.374,1.531-1.292,2.963-2.897,4.532 c-0.264,0.257-1.195,1.016-2.314,1.824c-0.004,0.889,0.077,1.588,0.221,1.895c0.146,0.312,0.429,0.711,0.948,0.843 c0.362,0.131,7.724,2.848,9.007,3.39c0.233,0.092,0.441,0.176,0.606,0.247c0.109,0.041,0.223,0.082,0.307,0.108 c2.179,0.657,3.313,2.014,3.787,4.532c0.004,0.022,0.007,0.045,0.008,0.067c0,0,0.364,7.137,0.57,11.49 c0.01,0.197-0.098,0.381-0.273,0.47c-4.164,2.102-11.685,4.503-16.576,4.718C52.304,86.931,51.111,86.96,49.97,86.96z M28.595,79.666c7.64,5.12,13.969,6.689,24.916,6.211c4.646-0.203,11.757-2.447,15.879-4.467c-0.2-4.191-0.526-10.602-0.554-11.126 c-0.409-2.135-1.277-3.182-3.09-3.729c-0.103-0.031-0.237-0.08-0.391-0.139c-0.176-0.075-0.374-0.155-0.607-0.246 c-1.273-0.538-8.85-3.335-8.926-3.363c-0.651-0.162-1.222-0.655-1.558-1.371c-0.232-0.495-0.338-1.366-0.313-2.589 c0.003-0.157,0.081-0.305,0.21-0.396c1.251-0.892,2.196-1.672,2.402-1.873c1.466-1.434,2.298-2.713,2.619-4.028 c0.119-0.487,0.235-0.965,0.771-1.366c0.251-0.189,0.5-0.331,0.738-0.466c0.438-0.247,0.755-0.426,0.99-0.865 c0.777-1.451,1.351-4.153,1.373-5.094c-0.168-0.644-0.87-1.146-1.693-1.201c-0.107-0.007-0.22-0.008-0.336-0.008 c-0.335-0.019-0.565,0.021-0.748,0.049c-0.252,0.042-0.535,0.084-0.772-0.134c-0.246-0.227-0.223-0.561-0.211-0.722 c0.063-0.866-0.025-4.021-0.059-5.209c-0.009-0.314-0.015-0.521-0.015-0.566c0-4.317-4.521-7.743-10.604-8.115 c-5.853,0.375-10.203,3.801-10.203,8.115c0,0.045-0.006,0.252-0.015,0.566c-0.033,1.188-0.122,4.343-0.059,5.209 c0.012,0.16,0.036,0.495-0.21,0.722c-0.238,0.219-0.521,0.177-0.772,0.134c-0.183-0.029-0.411-0.064-0.724-0.05 c-0.14,0.001-0.252,0.002-0.363,0.009c-0.821,0.056-1.523,0.558-1.691,1.201c0.024,0.934,0.636,3.72,1.373,5.094 c0.235,0.439,0.552,0.618,0.99,0.865c0.239,0.135,0.487,0.276,0.739,0.465c0.536,0.403,0.652,0.882,0.765,1.345 c0.326,1.337,1.158,2.616,2.625,4.051c0.206,0.201,1.113,0.913,2.28,1.729c0.141,0.099,0.221,0.262,0.213,0.433 c-0.062,1.362-0.123,2.189-0.188,2.527c-0.157,0.818-0.962,1.372-1.691,1.557l-7.292,2.646c-0.868,0.23-1.588,0.526-2.184,0.895 c-1.657,1.022-2.446,1.803-3.039,3.991c-0.462,1.706-0.533,6.469-0.563,8.503C28.604,79.193,28.6,79.47,28.595,79.666z"/><path fill="#895d3d" d="M61.452 47.739l-.596-.066.207-1.849-1.056.457L59.77 45.73l1.531-.663c.1-.042.213-.028.298.034.086.063.132.168.119.274L61.452 47.739zM36.519 47.387l-.266-2.364c-.012-.106.034-.211.12-.274.085-.065.199-.077.298-.034l1.531.664-.239.551-1.055-.458.208 1.85L36.519 47.387z"/><g><path fill="#472b29" d="M37.89,51.958c-0.001,0-0.002,0-0.004,0c-0.11-0.002-0.198-0.094-0.196-0.204l0.169-8.909 c0.003-0.111,0.096-0.191,0.204-0.196c0.11,0.002,0.198,0.094,0.196,0.204l-0.169,8.909C38.087,51.871,37.999,51.958,37.89,51.958z"/></g><g><path fill="#472b29" d="M59.917,51.958c-0.108,0-0.198-0.087-0.2-0.196l-0.17-8.909c-0.002-0.11,0.086-0.202,0.196-0.204 c0.001,0,0.003,0,0.004,0c0.108,0,0.198,0.087,0.2,0.196l0.17,8.909c0.002,0.11-0.086,0.202-0.196,0.204 C59.92,51.958,59.918,51.958,59.917,51.958z"/></g><g><path fill="#5e2e2e" d="M64.141,34.803c-2.327,0.17-3.789-2.619-5.307-4.677c-3.701-5.015-10.182-6.573-15.573-3.682 c-1.435,0.769-2.585,1.592-2.917,2.338c-2.726,1.159-4.256,4.7-4.857,8.105c-0.701,3.973,2.665,10.121,2.865,6.7 c0.144-2.469,1.067-5.921,2-8.068c0.419-0.965,0.801-1.987,1.075-3.044c0.322,2.568,3.675,5.011,5.777,5.033 c0.224,0.002,0.327-0.884,0.267-2.092c0.549,0.985,1.33,1.811,2.2,2.42c1.367,0.957,2.941,1.437,4.511,1.774 c-0.556-0.233-0.885-0.919-0.987-1.595c-0.053-0.351-0.058-0.707-0.053-1.064c1.371,0.949,2.842,1.649,4.444,1.709 c0.185,0.007,0.371,0.001,0.556-0.01c0.831,1.718,1.117,3.786,1.203,5.258c0.2,3.421,2.747-2.294,2.047-6.266 c-0.005-0.029-0.011-0.059-0.016-0.088C62.425,36.891,63.383,35.956,64.141,34.803z M41.774,30.648 c0.006-0.048,0.011-0.096,0.016-0.143c0.018,0.006,0.034,0.012,0.052,0.018C41.817,30.564,41.797,30.606,41.774,30.648z"/></g><g><path fill="#472b29" d="M48.988,61.642c-2.097,0-5.622-2.689-5.777-2.809c-0.109-0.084-0.13-0.241-0.046-0.351 c0.084-0.109,0.242-0.131,0.351-0.046c0.038,0.029,3.815,2.891,5.668,2.694c1.885-0.225,4.909-2.451,4.939-2.474 c0.109-0.081,0.267-0.059,0.35,0.053c0.082,0.11,0.059,0.268-0.053,0.35c-0.128,0.095-3.16,2.327-5.177,2.567 C49.162,61.637,49.076,61.642,48.988,61.642z"/></g><g><path fill="#97aec7" d="M47.046,68.881l-1.95-4.255h7.808l-1.95,4.255C50.086,70.385,47.914,70.385,47.046,68.881z"/></g><g><path fill="#c7ede6" d="M53.215,69.905c0.517-2.705,0.987-5.346,1.409-7.921c-1.748,0.949-4.578,1.776-5.624,2.064 c-1.133-0.313-4.361-1.257-6.038-2.304c0.414,2.543,0.876,5.151,1.384,7.821l0.322,0.485L49,64.678L53.215,69.905z"/></g><g><path fill="#66798f" d="M49.506,85.953c0.719-3.125,1.72-6.282,2.351-9.287l-0.743-5.874c-0.939-1.705-3.288-1.705-4.228,0 l-0.884,6.987c0.563,2.649,1.284,5.421,1.915,8.162L49.506,85.953z"/></g></svg>