<svg xmlns="http://www.w3.org/2000/svg" xmlns:svg="http://www.w3.org/2000/svg" id="svg136" width="48" height="36" fill="none" version="1.1" viewBox="0 0 48 36"><path id="path2" fill="#ccc" d="M 0,7 H 16 V 0 H 2 C 0.9,0 0,0.9 0,2 Z"/><path id="path4" fill="#999" d="M 32,0 H 16 v 7 h 16 z"/><path id="path6" fill="#666" d="M 48,7 H 32 V 0 h 14 c 1.1,0 2,0.9 2,2 z"/><path id="path8" fill="url(#paint0_linear)" d="M 46,36 H 2 C 0.9,36 0,35.1 0,34 V 6 h 48 v 28 c 0,1.1 -0.9,2 -2,2 z" style="fill:url(#paint0_linear)"/><g id="g23" filter="url(#filter0_dd)" transform="translate(0,-6)"><path id="path10" fill="url(#paint1_linear)" d="m 15.2,24.3 -8.80001,8.8 c -0.5,0.5 -0.5,1.2 0,1.6 l 1.8,1.8 C 8.69999,37 9.4,37 9.8,36.5 l 8.8,-8.8 c 0.5,-0.5 0.5,-1.2 0,-1.6 l -1.8,-1.8 c -0.4,-0.4 -1.2,-0.4 -1.6,0 z" style="fill:url(#paint1_linear)"/><mask id="mask0" width="13" height="13" x="6" y="24" mask-type="alpha" maskUnits="userSpaceOnUse"><path id="path12" fill="url(#paint2_linear)" d="m 15.2,24.3 -8.80001,8.8 c -0.5,0.5 -0.5,1.2 0,1.6 l 1.8,1.8 C 8.69999,37 9.4,37 9.8,36.5 l 8.8,-8.8 c 0.5,-0.5 0.5,-1.2 0,-1.6 l -1.8,-1.8 c -0.4,-0.4 -1.2,-0.4 -1.6,0 z"/></mask><g id="g19" mask="url(#mask0)"><g id="g17" filter="url(#filter1_dd)"><path id="path15" fill="url(#paint3_linear)" d="m 9.8,17.3 8.8,8.8 c 0.5,0.5 0.5,1.2 0,1.6 l -1.8,1.8 c -0.5,0.5 -1.2,0.5 -1.6,0 L 6.39999,20.7 c -0.5,-0.5 -0.5,-1.2 0,-1.6 l 1.8,-1.8 C 8.59999,16.9 9.4,16.9 9.8,17.3 Z" style="fill:url(#paint3_linear)"/></g></g><path id="path21" fill="url(#paint4_linear)" d="m 9.8,17.3 8.8,8.8 c 0.5,0.5 0.5,1.2 0,1.6 l -1.8,1.8 c -0.5,0.5 -1.2,0.5 -1.6,0 L 6.39999,20.7 c -0.5,-0.5 -0.5,-1.2 0,-1.6 l 1.8,-1.8 C 8.59999,16.9 9.4,16.9 9.8,17.3 Z" style="fill:url(#paint4_linear)"/></g><g id="g27" filter="url(#filter2_dd)" transform="translate(0,-6)"><path id="path25" fill="url(#paint5_linear)" d="M 40,32 H 24 c -0.6,0 -1,0.4 -1,1 v 3 c 0,0.6 0.4,1 1,1 h 16 c 0.6,0 1,-0.4 1,-1 v -3 c 0,-0.6 -0.4,-1 -1,-1 z" style="fill:url(#paint5_linear)"/></g><defs id="defs134"><filter id="filter0_dd" width="18.95" height="25.875" x="3.025" y="15" color-interpolation-filters="sRGB" filterUnits="userSpaceOnUse"><feFlood id="feFlood29" flood-opacity="0" result="BackgroundImageFix"/><feColorMatrix id="feColorMatrix31" in="SourceAlpha" type="matrix" values="0 0 0 0 0 0 0 0 0 0 0 0 0 0 0 0 0 0 127 0"/><feOffset id="feOffset33" dy=".5"/><feGaussianBlur id="feGaussianBlur35" stdDeviation=".5"/><feColorMatrix id="feColorMatrix37" type="matrix" values="0 0 0 0 0 0 0 0 0 0 0 0 0 0 0 0 0 0 0.1 0"/><feBlend id="feBlend39" in2="BackgroundImageFix" mode="normal" result="effect1_dropShadow"/><feColorMatrix id="feColorMatrix41" in="SourceAlpha" type="matrix" values="0 0 0 0 0 0 0 0 0 0 0 0 0 0 0 0 0 0 127 0"/><feOffset id="feOffset43" dy="1"/><feGaussianBlur id="feGaussianBlur45" stdDeviation="1.5"/><feColorMatrix id="feColorMatrix47" type="matrix" values="0 0 0 0 0 0 0 0 0 0 0 0 0 0 0 0 0 0 0.2 0"/><feBlend id="feBlend49" in2="effect1_dropShadow" mode="normal" result="effect2_dropShadow"/><feBlend id="feBlend51" in="SourceGraphic" in2="effect2_dropShadow" mode="normal" result="shape"/></filter><filter id="filter1_dd" width="18.95" height="18.875" x="3.025" y="15" color-interpolation-filters="sRGB" filterUnits="userSpaceOnUse"><feFlood id="feFlood54" flood-opacity="0" result="BackgroundImageFix"/><feColorMatrix id="feColorMatrix56" in="SourceAlpha" type="matrix" values="0 0 0 0 0 0 0 0 0 0 0 0 0 0 0 0 0 0 127 0"/><feOffset id="feOffset58" dy=".5"/><feGaussianBlur id="feGaussianBlur60" stdDeviation=".5"/><feColorMatrix id="feColorMatrix62" type="matrix" values="0 0 0 0 0 0 0 0 0 0 0 0 0 0 0 0 0 0 0.1 0"/><feBlend id="feBlend64" in2="BackgroundImageFix" mode="normal" result="effect1_dropShadow"/><feColorMatrix id="feColorMatrix66" in="SourceAlpha" type="matrix" values="0 0 0 0 0 0 0 0 0 0 0 0 0 0 0 0 0 0 127 0"/><feOffset id="feOffset68" dy="1"/><feGaussianBlur id="feGaussianBlur70" stdDeviation="1.5"/><feColorMatrix id="feColorMatrix72" type="matrix" values="0 0 0 0 0 0 0 0 0 0 0 0 0 0 0 0 0 0 0.2 0"/><feBlend id="feBlend74" in2="effect1_dropShadow" mode="normal" result="effect2_dropShadow"/><feBlend id="feBlend76" in="SourceGraphic" in2="effect2_dropShadow" mode="normal" result="shape"/></filter><filter id="filter2_dd" width="24" height="11" x="20" y="30" color-interpolation-filters="sRGB" filterUnits="userSpaceOnUse"><feFlood id="feFlood79" flood-opacity="0" result="BackgroundImageFix"/><feColorMatrix id="feColorMatrix81" in="SourceAlpha" type="matrix" values="0 0 0 0 0 0 0 0 0 0 0 0 0 0 0 0 0 0 127 0"/><feOffset id="feOffset83" dy=".5"/><feGaussianBlur id="feGaussianBlur85" stdDeviation=".5"/><feColorMatrix id="feColorMatrix87" type="matrix" values="0 0 0 0 0 0 0 0 0 0 0 0 0 0 0 0 0 0 0.1 0"/><feBlend id="feBlend89" in2="BackgroundImageFix" mode="normal" result="effect1_dropShadow"/><feColorMatrix id="feColorMatrix91" in="SourceAlpha" type="matrix" values="0 0 0 0 0 0 0 0 0 0 0 0 0 0 0 0 0 0 127 0"/><feOffset id="feOffset93" dy="1"/><feGaussianBlur id="feGaussianBlur95" stdDeviation="1.5"/><feColorMatrix id="feColorMatrix97" type="matrix" values="0 0 0 0 0 0 0 0 0 0 0 0 0 0 0 0 0 0 0.2 0"/><feBlend id="feBlend99" in2="effect1_dropShadow" mode="normal" result="effect2_dropShadow"/><feBlend id="feBlend101" in="SourceGraphic" in2="effect2_dropShadow" mode="normal" result="shape"/></filter><linearGradient id="paint0_linear" x1="36.446" x2="11.822" y1="47.826" y2="5.175" gradientTransform="translate(0,-6)" gradientUnits="userSpaceOnUse"><stop id="stop104" stop-color="#333"/><stop id="stop106" offset="1" stop-color="#4D4D4D"/></linearGradient><linearGradient id="paint1_linear" x1="14.528" x2="10.484" y1="33.996" y2="26.992" gradientUnits="userSpaceOnUse"><stop id="stop109" stop-color="#999"/><stop id="stop111" offset="1" stop-color="#B3B3B3"/></linearGradient><linearGradient id="paint2_linear" x1="14.528" x2="10.484" y1="33.996" y2="26.992" gradientUnits="userSpaceOnUse"><stop id="stop114" stop-color="#999"/><stop id="stop116" offset="1" stop-color="#B3B3B3"/></linearGradient><linearGradient id="paint3_linear" x1="16.275" x2="8.737" y1="30.034" y2="16.978" gradientUnits="userSpaceOnUse"><stop id="stop119" stop-color="#CCC"/><stop id="stop121" offset="1" stop-color="#E6E6E6"/></linearGradient><linearGradient id="paint4_linear" x1="16.275" x2="8.737" y1="30.034" y2="16.978" gradientUnits="userSpaceOnUse"><stop id="stop124" stop-color="#CCC"/><stop id="stop126" offset="1" stop-color="#E6E6E6"/></linearGradient><linearGradient id="paint5_linear" x1="35.15" x2="28.85" y1="39.955" y2="29.045" gradientUnits="userSpaceOnUse"><stop id="stop129" stop-color="#CCC"/><stop id="stop131" offset="1" stop-color="#E6E6E6"/></linearGradient></defs></svg>