<svg xmlns="http://www.w3.org/2000/svg" width="100" height="100" fill="none" viewBox="0 0 100 100"><path fill="#AE0F0A" d="M93.75 43.75C97.0833 43.75 100 46.6667 100 50V81.25C100 84.5833 97.0833 87.5 93.75 87.5H81.25C77.9167 87.5 75 84.5833 75 81.25V50C75 46.6667 77.9167 43.75 81.25 43.75H93.75Z"/><path fill="#4F81C1" d="M56.25 12.5C59.5833 12.5 62.5 15.4167 62.5 18.75V81.25C62.5 84.5833 59.5833 87.5 56.25 87.5H43.75C40.4167 87.5 37.5 84.5833 37.5 81.25V18.75C37.5 15.4167 40.4167 12.5 43.75 12.5H56.25Z"/><path fill="#FFD400" d="M18.75 31.25C22.0833 31.25 25 34.1667 25 37.5V81.25C25 84.5833 22.0833 87.5 18.75 87.5H6.25C2.91667 87.5 0 84.5833 0 81.25V37.5C0 34.1667 2.91667 31.25 6.25 31.25H18.75Z"/></svg>