<svg width="40" height="40" viewBox="0 0 40 40" fill="none" xmlns="http://www.w3.org/2000/svg">
<g id="devicon:google" clip-path="url(#clip0_1_5990)">
<path id="Vector" d="M13.9344 1.31653C9.9378 2.703 6.49112 5.33455 4.10064 8.82467C1.71016 12.3148 0.501892 16.4795 0.653301 20.7071C0.80471 24.9346 2.30782 29.0022 4.94185 32.3124C7.57587 35.6225 11.202 38.0008 15.2875 39.0978C18.5998 39.9525 22.0701 39.99 25.4 39.2072C28.4167 38.5296 31.2056 37.0802 33.4938 35.0009C35.8753 32.7707 37.6039 29.9337 38.4938 26.7947C39.4607 23.3811 39.6328 19.7913 38.9969 16.3009H20.3969V24.0165H31.1688C30.9535 25.2471 30.4922 26.4216 29.8124 27.4698C29.1326 28.5179 28.2484 29.4181 27.2125 30.1165C25.8973 30.987 24.4145 31.5724 22.8594 31.8353C21.2999 32.1253 19.7002 32.1253 18.1407 31.8353C16.5599 31.5088 15.0645 30.8564 13.75 29.9197C11.638 28.4246 10.0522 26.3007 9.21879 23.8509C8.37157 21.3552 8.37157 18.6497 9.21879 16.154C9.812 14.4047 10.7926 12.812 12.0875 11.4947C13.5694 9.95949 15.4455 8.86215 17.5099 8.32302C19.5744 7.7839 21.7474 7.82382 23.7907 8.43841C25.3869 8.92817 26.8466 9.78428 28.0532 10.9384C29.2678 9.73008 30.4803 8.51862 31.6907 7.30403C32.3157 6.65091 32.9969 6.02903 33.6125 5.36028C31.7705 3.64628 29.6084 2.31249 27.25 1.43528C22.9554 -0.124122 18.2562 -0.16603 13.9344 1.31653Z" fill="white"/>
<path id="Vector_2" d="M13.9352 1.3161C18.2566 -0.167472 22.9557 -0.126667 27.2508 1.43173C29.6095 2.31488 31.7706 3.6551 33.6102 5.37548C32.9852 6.04423 32.3258 6.66923 31.6883 7.31923C30.4758 8.52964 29.2643 9.73589 28.0539 10.938C26.8473 9.78384 25.3877 8.92774 23.7914 8.43797C21.7488 7.82123 19.5758 7.779 17.5108 8.31592C15.4458 8.85284 13.5686 9.94817 12.0852 11.4817C10.7903 12.799 9.80961 14.3918 9.21641 16.1411L2.73828 11.1255C5.05706 6.52723 9.07187 3.00993 13.9352 1.3161Z" fill="#E33629"/>
<path id="Vector_3" d="M1.01835 16.0938C1.36629 14.368 1.94437 12.6969 2.7371 11.125L9.21523 16.1531C8.368 18.6488 8.368 21.3543 9.21523 23.85C7.05689 25.5167 4.89752 27.1917 2.7371 28.875C0.753196 24.926 0.14814 20.4266 1.01835 16.0938Z" fill="#F8BD00"/>
<path id="Vector_4" d="M20.3959 16.2969H38.9959C39.6318 19.7873 39.4597 23.377 38.4928 26.7906C37.6029 29.9296 35.8743 32.7667 33.4928 34.9969C31.4022 33.3656 29.3022 31.7469 27.2115 30.1156C28.248 29.4165 29.1327 28.5153 29.8125 27.466C30.4923 26.4168 30.9533 25.2411 31.1678 24.0094H20.3959C20.3928 21.4406 20.3959 18.8687 20.3959 16.2969Z" fill="#587DBD"/>
<path id="Vector_5" d="M2.73438 28.8746C4.89479 27.2079 7.05417 25.5329 9.2125 23.8496C10.0475 26.3002 11.6356 28.4243 13.75 29.9184C15.0686 30.8508 16.5672 31.4979 18.15 31.8184C19.7095 32.1084 21.3092 32.1084 22.8687 31.8184C24.4238 31.5555 25.9067 30.97 27.2219 30.0996C29.3125 31.7309 31.4125 33.3496 33.5031 34.9809C31.2153 37.0613 28.4263 38.5117 25.4094 39.1902C22.0794 39.9731 18.6091 39.9355 15.2969 39.0809C12.6772 38.3814 10.2302 37.1483 8.10938 35.459C5.86477 33.6765 4.03136 31.4306 2.73438 28.8746Z" fill="#319F43"/>
</g>
<defs>
<clipPath id="clip0_1_5990">
<rect width="40" height="40" fill="white"/>
</clipPath>
</defs>
</svg>
