<svg width="100" height="100" viewBox="0 0 100 100" fill="none" xmlns="http://www.w3.org/2000/svg">
<g clip-path="url(#clip0_3028_27556)">
<path d="M78.4414 99.4072C78.3426 99.7991 77.9506 99.9951 77.2671 99.9951H64.1952C63.4096 99.9951 62.7294 99.6526 62.1398 98.9658L40.5548 71.5077L34.5351 77.2342V98.5293C34.5351 99.5093 34.0443 99.9984 33.066 99.9984H22.9339C21.954 99.9984 21.4648 99.5093 21.4648 98.5293V1.46579C21.4648 0.489146 21.954 0 22.9339 0H33.0677C34.046 0 34.5368 0.490793 34.5368 1.46579V61.2307L60.3808 35.0934C61.066 34.4099 61.7511 34.0657 62.4363 34.0657H75.9479C76.5342 34.0657 76.9246 34.3127 77.1222 34.7986C77.3198 35.3866 77.2704 35.8263 76.974 36.1211L49.6591 62.5482L78.1466 97.9381C78.5369 98.33 78.6357 98.8192 78.4431 99.4072" fill="#20BEFF"/>
</g>
<defs>
<clipPath id="clip0_3028_27556">
<rect width="100" height="100" fill="white"/>
</clipPath>
</defs>
</svg>
